
<svg width="3300px" height="2200px" viewBox="0 0 3300 2200" version="1.1" xmlns="http://www.w3.org/2000/svg" xmlns:xlink="http://www.w3.org/1999/xlink">
    <g id="repeat" stroke="none" stroke-width="1" fill="none" fill-rule="evenodd">
        <g>
            <g id="Notes">
                <rect id="artboard" fill="#FFFFFF" fill-rule="nonzero" x="0" y="0" width="3300" height="2200"></rect>
                <line x1="263" y1="292" x2="3036" y2="292" id="Path" stroke="#000000" stroke-width="0.5"></line>
                <text id="Weight/Scale-Variations" fill="#000000" fill-rule="nonzero" font-family="Helvetica" font-size="13" font-weight="normal">
                    <tspan x="263" y="322">Weight/Scale Variations</tspan>
                </text>
                <text id="Ultralight" fill="#000000" fill-rule="nonzero" font-family="Helvetica" font-size="13" font-weight="normal">
                    <tspan x="533.711" y="322">Ultralight</tspan>
                </text>
                <text id="Thin" fill="#000000" fill-rule="nonzero" font-family="Helvetica" font-size="13" font-weight="normal">
                    <tspan x="843.422" y="322">Thin</tspan>
                </text>
                <text id="Light" fill="#000000" fill-rule="nonzero" font-family="Helvetica" font-size="13" font-weight="normal">
                    <tspan x="1138.63" y="322">Light</tspan>
                </text>
                <text id="Regular" fill="#000000" fill-rule="nonzero" font-family="Helvetica" font-size="13" font-weight="normal">
                    <tspan x="1426.84" y="322">Regular</tspan>
                </text>
                <text id="Medium" fill="#000000" fill-rule="nonzero" font-family="Helvetica" font-size="13" font-weight="normal">
                    <tspan x="1723.06" y="322">Medium</tspan>
                </text>
                <text id="Semibold" fill="#000000" fill-rule="nonzero" font-family="Helvetica" font-size="13" font-weight="normal">
                    <tspan x="2015.77" y="322">Semibold</tspan>
                </text>
                <text id="Bold" fill="#000000" fill-rule="nonzero" font-family="Helvetica" font-size="13" font-weight="normal">
                    <tspan x="2326.48" y="322">Bold</tspan>
                </text>
                <text id="Heavy" fill="#000000" fill-rule="nonzero" font-family="Helvetica" font-size="13" font-weight="normal">
                    <tspan x="2618.19" y="322">Heavy</tspan>
                </text>
                <text id="Black" fill="#000000" fill-rule="nonzero" font-family="Helvetica" font-size="13" font-weight="normal">
                    <tspan x="2917.4" y="322">Black</tspan>
                </text>
                <line x1="263" y1="1903" x2="3036" y2="1903" id="Path" stroke="#000000" stroke-width="0.5"></line>
                <g id="Group" transform="translate(264.367190, 1918.068400)" fill="#000000" fill-rule="nonzero">
                    <path d="M7.88086,15.761678 C12.18751,15.761678 15.77151,12.18746 15.77151,7.88082 C15.77151,3.5742 12.17771,0 7.87109,0 C3.57422,0 -8.8817842e-16,3.5742 -8.8817842e-16,7.88082 C-8.8817842e-16,12.18746 3.58398,15.761678 7.88086,15.761678 Z M7.88086,14.277303 C4.33593,14.277303 1.5039,11.43551 1.5039,7.88082 C1.5039,4.3261 4.32617,1.4843 7.87109,1.4843 C11.42581,1.4843 14.27731,4.3261 14.27731,7.88082 C14.27731,11.43551 11.43551,14.277303 7.88086,14.277303 Z M4.28711,7.88082 C4.28711,8.31051 4.58984,8.60348 5.03906,8.60348 L7.13867,8.60348 L7.13867,10.72262 C7.13867,11.16207 7.43164,11.4648 7.86133,11.4648 C8.31054,11.4648 8.60351,11.16207 8.60351,10.72262 L8.60351,8.60348 L10.72261,8.60348 C11.16211,8.60348 11.46481,8.31051 11.46481,7.88082 C11.46481,7.44137 11.16211,7.13863 10.72261,7.13863 L8.60351,7.13863 L8.60351,5.02926 C8.60351,4.58 8.31054,4.2773 7.86133,4.2773 C7.43164,4.2773 7.13867,4.58 7.13867,5.02926 L7.13867,7.13863 L5.03906,7.13863 C4.58984,7.13863 4.28711,7.44137 4.28711,7.88082 Z" id="Shape"></path>
                </g>
                <g id="Group" transform="translate(283.615050, 1915.988300)" fill="#000000" fill-rule="nonzero">
                    <path d="M9.96095,19.92186 C15.41015,19.92186 19.92185,15.40037 19.92185,9.96092 C19.92185,4.5117 15.40035,0 9.95115,0 C4.51172,0 8.8817842e-16,4.5117 8.8817842e-16,9.96092 C8.8817842e-16,15.40037 4.52148,19.92186 9.96095,19.92186 Z M9.96095,18.2617 C5.35156,18.2617 1.66992,14.57029 1.66992,9.96092 C1.66992,5.3515 5.34179,1.6601 9.95115,1.6601 C14.56055,1.6601 18.26175,5.3515 18.26175,9.96092 C18.26175,14.57029 14.57035,18.2617 9.96095,18.2617 Z M5.42968,9.96092 C5.42968,10.43943 5.76172,10.7617 6.25976,10.7617 L9.13085,10.7617 L9.13085,13.64256 C9.13085,14.13084 9.46285,14.47264 9.94145,14.47264 C10.42965,14.47264 10.77145,14.14061 10.77145,13.64256 L10.77145,10.7617 L13.65235,10.7617 C14.14065,10.7617 14.48245,10.43943 14.48245,9.96092 C14.48245,9.47264 14.14065,9.13084 13.65235,9.13084 L10.77145,9.13084 L10.77145,6.2597 C10.77145,5.7617 10.42965,5.4199 9.94145,5.4199 C9.46285,5.4199 9.13085,5.7617 9.13085,6.2597 L9.13085,9.13084 L6.25976,9.13084 C5.76172,9.13084 5.42968,9.47264 5.42968,9.96092 Z" id="Shape"></path>
                </g>
                <g id="Group" transform="translate(307.901860, 1913.224600)" fill="#000000" fill-rule="nonzero">
                    <path d="M12.71484,25.43946 C19.67774,25.43946 25.43944,19.6777438 25.43944,12.72462 C25.43944,5.7617 19.66794,0 12.70504,0 C5.75195,0 0,5.7617 0,12.72462 C0,19.6777438 5.76172,25.43946 12.71484,25.43946 Z M12.71484,23.62306 C6.67969,23.62306 1.82617,18.75978 1.82617,12.72462 C1.82617,6.6797 6.66992,1.8262 12.70504,1.8262 C18.75004,1.8262 23.61324,6.6797 23.61324,12.72462 C23.61324,18.75978 18.75974,23.62306 12.71484,23.62306 Z M6.94336,12.72462 C6.94336,13.2422 7.31445,13.60352 7.86134,13.60352 L11.80664,13.60352 L11.80664,17.5586 C11.80664,18.09571 12.17774,18.47657 12.69534,18.47657 C13.23244,18.47657 13.60354,18.10548 13.60354,17.5586 L13.60354,13.60352 L17.55864,13.60352 C18.09574,13.60352 18.47654,13.2422 18.47654,12.72462 C18.47654,12.17774 18.10544,11.80665 17.55864,11.80665 L13.60354,11.80665 L13.60354,7.8613 C13.60354,7.3145 13.23244,6.9336 12.69534,6.9336 C12.17774,6.9336 11.80664,7.3145 11.80664,7.8613 L11.80664,11.80665 L7.86134,11.80665 C7.31445,11.80665 6.94336,12.17774 6.94336,12.72462 Z" id="Shape"></path>
                </g>
                <text id="Design-Variations" fill="#000000" fill-rule="nonzero" font-family="Helvetica" font-size="13" font-weight="normal">
                    <tspan x="263" y="1953">Design Variations</tspan>
                </text>
                <text id="Symbols-are-supported-in-up-to-nine-weights-and-three-scales." fill="#000000" fill-rule="nonzero" font-family="Helvetica" font-size="13" font-weight="normal">
                    <tspan x="263" y="1971">Symbols are supported in up to nine weights and three scales.</tspan>
                </text>
                <text id="For-optimal-layout-with-text-and-other-symbols,-vertically-align" fill="#000000" fill-rule="nonzero" font-family="Helvetica" font-size="13" font-weight="normal">
                    <tspan x="263" y="1989">For optimal layout with text and other symbols, vertically align</tspan>
                </text>
                <text id="symbols-with-the-adjacent-text." fill="#000000" fill-rule="nonzero" font-family="Helvetica" font-size="13" font-weight="normal">
                    <tspan x="263" y="2007">symbols with the adjacent text.</tspan>
                </text>
                <line x1="776" y1="1919" x2="776" y2="1933" id="Path" stroke="#00AEEF" stroke-width="0.5"></line>
                <g id="Group" transform="translate(778.490230, 1918.732400)" fill="#000000" fill-rule="nonzero">
                    <path d="M0.82032,14.42385 C1.33789,14.42385 1.5918,14.2285375 1.77735,13.681662 L3.03711,10.2344 L8.79887,10.2344 L10.05857,13.681662 C10.24417,14.2285375 10.49807,14.42385 11.00587,14.42385 C11.52347,14.42385 11.85547,14.11135 11.85547,13.623069 C11.85547,13.457053 11.82617,13.300803 11.74807,13.09572 L7.16797,0.8985 C6.94336,0.3028 6.54297,0 5.91797,0 C5.3125,0 4.90235,0.293 4.6875,0.8887 L0.10743,13.10549 C0.0293,13.310569 -4.4408921e-16,13.466819 -4.4408921e-16,13.632834 C-4.4408921e-16,14.121116 0.3125,14.42385 0.82032,14.42385 Z M3.51563,8.75002 L5.88868,2.1778 L5.9375,2.1778 L8.31057,8.75002 L3.51563,8.75002 Z" id="Shape"></path>
                </g>
                <line x1="793.197" y1="1919" x2="793.197" y2="1933" id="Path" stroke="#00AEEF" stroke-width="0.5"></line>
                <text id="Margins" fill="#000000" fill-rule="nonzero" font-family="Helvetica" font-size="13" font-weight="normal">
                    <tspan x="776" y="1953">Margins</tspan>
                </text>
                <text id="Leading-and-trailing-margins-on-the-left-and-right-side-of-each-symbol" fill="#000000" fill-rule="nonzero" font-family="Helvetica" font-size="13" font-weight="normal">
                    <tspan x="776" y="1971">Leading and trailing margins on the left and right side of each symbol</tspan>
                </text>
                <text id="can-be-adjusted-by-modifying-the-x-location-of-the-margin-guidelines." fill="#000000" fill-rule="nonzero" font-family="Helvetica" font-size="13" font-weight="normal">
                    <tspan x="776" y="1989">can be adjusted by modifying the x-location of the margin guidelines.</tspan>
                </text>
                <text id="Modifications-are-automatically-applied-proportionally-to-all" fill="#000000" fill-rule="nonzero" font-family="Helvetica" font-size="13" font-weight="normal">
                    <tspan x="776" y="2007">Modifications are automatically applied proportionally to all</tspan>
                </text>
                <text id="scales-and-weights." fill="#000000" fill-rule="nonzero" font-family="Helvetica" font-size="13" font-weight="normal">
                    <tspan x="776" y="2025">scales and weights.</tspan>
                </text>
                <g id="Group" transform="translate(1291.248126, 1914.517396)" fill="#000000" fill-rule="nonzero">
                    <path d="M0.593673634,20.347834 L2.29289363,22.056824 C3.15226363,22.925964 4.13859363,22.867374 5.06632363,21.841984 L15.7596736,10.054874 L14.7928736,9.07830404 L4.17765363,20.757994 C3.82609363,21.158384 3.49406363,21.256044 3.02531363,20.787294 L1.85343363,19.625184 C1.38468363,19.166198 1.49210363,18.824401 1.89249363,18.4630728 L13.3670736,7.66230404 L12.3905736,6.69550404 L0.798753634,17.584166 C-0.187576366,18.5021352 -0.265706366,19.478698 0.593673634,20.347834 Z M7.00968363,2.15450404 C6.58976363,2.56460404 6.56046363,3.14080404 6.79484363,3.53140404 C7.02921363,3.89280404 7.48820363,4.12710404 8.13277363,3.96110404 C9.59757363,3.61930404 11.1209736,3.56070404 12.5467736,4.49820404 L11.9608736,5.95330404 C11.6190736,6.78340404 11.7948736,7.36930404 12.3319736,7.91620404 L14.6268736,10.230654 C15.1151736,10.718934 15.5252736,10.738464 16.0916736,10.640804 L17.1561736,10.445494 L17.8202736,11.119324 L17.7811736,11.675964 C17.7420736,12.174014 17.8690736,12.554874 18.3573736,13.033384 L19.1190736,13.775574 C19.5975736,14.254084 20.2127736,14.283384 20.6815736,13.814634 L23.5916736,10.894714 C24.0604736,10.425964 24.0409736,9.83026404 23.5623736,9.35174404 L22.7909736,8.59002404 C22.3123736,8.11150404 21.9413736,7.95530404 21.4627736,7.99430404 L20.8866736,8.04310404 L20.2420736,7.40840404 L20.4862736,6.28530404 C20.6131736,5.71890404 20.4569736,5.27950404 19.8709736,4.69350404 L17.6737736,2.50600404 C14.3338736,-0.814295964 9.90027363,-0.736195964 7.00968363,2.15450404 Z M8.50387363,2.52560404 C10.9354736,0.748204036 14.2264736,1.05100404 16.4530736,3.27750404 L18.8846736,5.68960404 C19.1190736,5.92400404 19.1580736,6.10960404 19.0897736,6.45140404 L18.7674736,7.93570404 L20.2713736,9.42010404 L21.2577736,9.36151404 C21.5116736,9.35174404 21.5897736,9.37127404 21.7850736,9.56658404 L22.3612736,10.142764 L19.9198736,12.584164 L19.3436736,12.007994 C19.1483736,11.812684 19.1190736,11.734554 19.1288736,11.470884 L19.1971736,10.494324 L17.7030736,9.00994404 L16.1795736,9.26385404 C15.8573736,9.33221404 15.7108736,9.30291404 15.4666736,9.06854404 L13.4647736,7.06660404 C13.2108736,6.83220404 13.1815736,6.66620404 13.3377736,6.29510404 L14.2166736,4.20530404 C12.6541736,2.75020404 10.6229736,2.12520404 8.59167363,2.72090404 C8.43547363,2.75990404 8.37687363,2.63300404 8.50387363,2.52560404 Z" id="Shape"></path>
                </g>
                <text id="Exporting" fill="#000000" fill-rule="nonzero" font-family="Helvetica" font-size="13" font-weight="normal">
                    <tspan x="1289" y="1953">Exporting</tspan>
                </text>
                <text id="Symbols-should-be-outlined-when-exporting-to-ensure-the" fill="#000000" fill-rule="nonzero" font-family="Helvetica" font-size="13" font-weight="normal">
                    <tspan x="1289" y="1971">Symbols should be outlined when exporting to ensure the</tspan>
                </text>
                <text id="design-is-preserved-when-submitting-to-Xcode." fill="#000000" fill-rule="nonzero" font-family="Helvetica" font-size="13" font-weight="normal">
                    <tspan x="1289" y="1989">design is preserved when submitting to Xcode.</tspan>
                </text>
                <text id="template-version" fill="#000000" fill-rule="nonzero" font-family="Helvetica" font-size="13" font-weight="normal">
                    <tspan x="2952" y="1933">Template v.4.0</tspan>
                </text>
                <text id="Requires-Xcode-14-or-greater" fill="#000000" fill-rule="nonzero" font-family="Helvetica" font-size="13" font-weight="normal">
                    <tspan x="2865" y="1951">Requires Xcode 14 or greater</tspan>
                </text>
                <text id="descriptive-name" fill="#000000" fill-rule="nonzero" font-family="Helvetica" font-size="13" font-weight="normal">
                    <tspan x="2904" y="1969">Generated from repeat</tspan>
                </text>
                <text id="Typeset-at-100-points" fill="#000000" fill-rule="nonzero" font-family="Helvetica" font-size="13" font-weight="normal">
                    <tspan x="2912" y="1987">Typeset at 100 points</tspan>
                </text>
                <text id="Small" fill="#000000" fill-rule="nonzero" font-family="Helvetica" font-size="13" font-weight="normal">
                    <tspan x="263" y="726">Small</tspan>
                </text>
                <text id="Medium" fill="#000000" fill-rule="nonzero" font-family="Helvetica" font-size="13" font-weight="normal">
                    <tspan x="263" y="1156">Medium</tspan>
                </text>
                <text id="Large" fill="#000000" fill-rule="nonzero" font-family="Helvetica" font-size="13" font-weight="normal">
                    <tspan x="263" y="1586">Large</tspan>
                </text>
            </g>
            <g id="Guides" transform="translate(263.000000, 625.041000)">
                <g id="H-reference" transform="translate(76.993654, 0.500000)" fill="#27AAE1" fill-rule="nonzero">
                    <path d="M0,70.459 L2.644096,70.459 L28.334446,3.3267 L29.036646,3.3267 L29.036646,0 L27.128946,0 L0,70.459 Z M10.694846,45.9791 L45.987846,45.9791 L45.237846,43.7305 L11.444846,43.7305 L10.694846,45.9791 Z M54.125946,70.459 L56.770046,70.459 L29.644546,0 L28.438946,0 L28.438946,3.3267 L54.125946,70.459 Z" id="Shape"></path>
                </g>
                <line x1="0" y1="70.959" x2="2773" y2="70.959" id="Baseline-S" stroke="#27AAE1" stroke-width="0.5"></line>
                <line x1="0" y1="0.5" x2="2773" y2="0.5" id="Capline-S" stroke="#27AAE1" stroke-width="0.5"></line>
                <g id="H-reference" transform="translate(76.993654, 430.500000)" fill="#27AAE1" fill-rule="nonzero">
                    <path d="M0,70.459 L2.644096,70.459 L28.334446,3.3267 L29.036646,3.3267 L29.036646,0 L27.128946,0 L0,70.459 Z M10.694846,45.9791 L45.987846,45.9791 L45.237846,43.7305 L11.444846,43.7305 L10.694846,45.9791 Z M54.125946,70.459 L56.770046,70.459 L29.644546,0 L28.438946,0 L28.438946,3.3267 L54.125946,70.459 Z" id="Shape"></path>
                </g>
                <line x1="0" y1="500.959" x2="2773" y2="500.959" id="Baseline-M" stroke="#27AAE1" stroke-width="0.5"></line>
                <line x1="0" y1="430.499" x2="2773" y2="430.499" id="Capline-M" stroke="#27AAE1" stroke-width="0.5"></line>
                <g id="H-reference" transform="translate(76.993654, 860.500000)" fill="#27AAE1" fill-rule="nonzero">
                    <path d="M0,70.459 L2.644096,70.459 L28.334446,3.3267 L29.036646,3.3267 L29.036646,0 L27.128946,0 L0,70.459 Z M10.694846,45.9791 L45.987846,45.9791 L45.237846,43.7305 L11.444846,43.7305 L10.694846,45.9791 Z M54.125946,70.459 L56.770046,70.459 L29.644546,0 L28.438946,0 L28.438946,3.3267 L54.125946,70.459 Z" id="Shape"></path>
                </g>
                <line x1="0" y1="930.959" x2="2773" y2="930.959" id="Baseline-L" stroke="#27AAE1" stroke-width="0.5"></line>
                <line x1="0" y1="860.499" x2="2773" y2="860.499" id="Capline-L" stroke="#27AAE1" stroke-width="0.5"></line>
                <line x1="1122.28" y1="405.749" x2="1122.28" y2="525.079" id="left-margin-Regular-M" stroke="#00AEEF" stroke-width="0.5"></line>
                <line x1="1251.41" y1="405.749" x2="1251.41" y2="525.079" id="right-margin-Regular-M" stroke="#00AEEF" stroke-width="0.5"></line>
            </g>
            <g id="Symbols" transform="translate(501.794000, 614.701200)" fill="#000000" fill-rule="nonzero">
                <g id="Black-L" transform="translate(2355.250000, 835.453800)">
                    <path d="M10.3969,73.0836 C16.1221,73.0836 20.7146,68.4327 20.7146,62.6867 L20.7146,58.3377 C20.7146,47.1772 28.1121,40.4716 40.3236,40.4716 L87.669,40.4716 L87.669,54.0882 C87.669,58.8064 90.549,61.7242 95.153,61.7242 C97.366,61.7242 99.049,60.9544 100.42,59.8034 L128.24,36.1591 C131.669,33.2289 131.652,28.4176 128.24,25.5261 L100.42,1.919 C99.049,0.768 97.366,0 95.153,0 C90.549,0 87.669,2.916 87.669,7.6357 L87.669,20.2134 L41.2199,20.2134 C15.6095,20.2134 0,33.4896 0,55.3636 L0,62.6867 C0,68.4327 4.6521,73.0836 10.3969,73.0836 Z M142.323,61.8043 C136.578,61.8043 131.984,66.4552 131.984,72.2012 L131.984,76.5502 C131.984,87.7107 124.587,94.4164 112.396,94.4164 L65.0515,94.4164 L65.0515,80.6661 C65.0515,75.9479 62.1505,73.0301 57.5455,73.0301 C55.3535,73.0301 53.6515,73.7999 52.28,74.9509 L24.4583,98.59527 C21.0301,101.54628 21.0676,106.336771 24.4583,109.22818 L52.28,132.8349 C53.6515,133.9848 55.3535,134.7545 57.5455,134.7545 C62.1505,134.7545 65.0515,131.838 65.0515,127.1186 L65.0515,114.67454 L111.501,114.67454 C137.111,114.67454 152.72,101.39828 152.72,79.5243 L152.72,72.2012 C152.72,66.4552 148.069,61.8043 142.323,61.8043 Z" id="Shape"></path>
                </g>
                <g id="Heavy-L" transform="translate(2060.880000, 839.014800)">
                    <path d="M9.1456,69.4442 C14.1991,69.4442 18.2165,65.3822 18.2165,60.2985 L18.2165,55.5758 C18.2165,44.4272 25.6095,37.6482 37.7082,37.6482 L85.325,37.6482 L85.325,51.5621 C85.325,55.7371 87.853,58.2799 91.95,58.2799 C93.911,58.2799 95.449,57.5967 96.715,56.5416 L123.56,33.8921 C126.649,31.2641 126.665,26.9761 123.56,24.3681 L96.715,1.733 C95.449,0.678 93.911,0 91.95,0 C87.853,0 85.325,2.5376 85.325,6.7182 L85.325,19.8325 L38.6072,19.8325 C14.7355,19.8325 -3.55271368e-15,32.4061 -3.55271368e-15,53.1465 L-3.55271368e-15,60.2985 C-3.55271368e-15,65.3822 4.0676,69.4442 9.1456,69.4442 Z M138.888,59.8424 C133.81,59.8424 129.787,63.9043 129.787,68.988 L129.787,73.7107 C129.787,84.8593 122.394,91.6384 110.326,91.6384 L62.7147,91.6384 L62.7147,77.651 C62.7147,73.476 60.1562,70.9332 56.0536,70.9332 C54.1224,70.9332 52.5605,71.6164 51.2943,72.6715 L24.4437,95.32092 C21.3546,97.97911 21.369,102.236986 24.4437,104.84495 L51.2943,127.48 C52.5605,128.5295 54.1224,129.2126 56.0536,129.2126 C60.1562,129.2126 62.7147,126.6755 62.7147,122.4949 L62.7147,109.45409 L109.432,109.45409 C133.304,109.45409 148.034,96.88041 148.034,76.14 L148.034,68.988 C148.034,63.9043 143.972,59.8424 138.888,59.8424 Z" id="Shape"></path>
                </g>
                <g id="Bold-L" transform="translate(1767.140000, 843.194800)">
                    <path d="M7.6308,65.1122 C11.8767,65.1122 15.1945,61.7653 15.1945,57.4814 L15.1945,52.3647 C15.1945,41.1196 22.5799,34.2559 34.6594,34.2559 L82.3083,34.2559 L82.3083,48.5237 C82.3083,52.0375 84.414,54.1341 87.896,54.1341 C89.557,54.1341 90.903,53.5584 92.046,52.6187 L117.751,31.1839 C120.448,28.9099 120.494,25.2152 117.751,22.9458 L92.046,1.5021 C90.903,0.5624 89.557,0 87.896,0 C84.414,0 82.3083,2.0833 82.3083,5.6104 L82.3083,19.4079 L35.5213,19.4079 C13.7042,19.4079 0,31.1207 0,50.5742 L0,57.4814 C0,61.7653 3.3601,65.1122 7.6308,65.1122 Z M134.46,57.5181 C130.189,57.5181 126.858,60.865 126.858,65.1489 L126.858,70.2657 C126.858,81.5107 119.473,88.37443 107.431,88.37443 L59.7956,88.37443 L59.7956,74.095 C59.7956,70.5812 57.6523,68.4846 54.1572,68.4846 C52.5338,68.4846 51.1635,69.0602 50.0205,70 L24.3016,91.43481 C21.6052,93.74672 21.5964,97.403421 24.3016,99.6729 L50.0205,121.1165 C51.1635,122.043 52.5338,122.6186 54.1572,122.6186 C57.6523,122.6186 59.7956,120.5353 59.7956,117.0083 L59.7956,103.22236 L106.583,103.22236 C128.4,103.22236 142.091,91.50958 142.091,72.0561 L142.091,65.1489 C142.091,60.865 138.744,57.5181 134.46,57.5181 Z" id="Shape"></path>
                </g>
                <g id="Semibold-L" transform="translate(1472.480000, 846.076200)">
                    <path d="M6.5865,62.1261 C10.2757,62.1261 13.1111,59.2721 13.1111,55.5395 L13.1111,50.1512 C13.1111,38.8396 20.4912,31.9175 32.5576,31.9175 L80.2289,31.9175 L80.2289,46.4293 C80.2289,49.4873 82.0426,51.2762 85.1,51.2762 C86.555,51.2762 87.768,50.7747 88.826,49.9146 L113.747,29.317 C116.172,27.2872 116.24,24.0016 113.747,21.9655 L88.826,1.3432 C87.768,0.483 86.555,0 85.1,0 C82.0426,0 80.2289,1.7705 80.2289,4.8469 L80.2289,19.1155 L33.3938,19.1155 C12.9933,19.1155 0,30.2348 0,48.8012 L0,55.5395 C0,59.2721 2.8724,62.1261 6.5865,62.1261 Z M131.407,55.916 C127.693,55.916 124.839,58.77 124.839,62.5025 L124.839,67.8909 C124.839,79.2024 117.459,86.12456 105.436,86.12456 L57.7832,86.12456 L57.7832,71.6438 C57.7832,68.5858 55.9261,66.7969 52.8498,66.7969 C51.4387,66.7969 50.2003,67.2983 49.1422,68.1585 L24.2036,88.75602 C21.7779,90.8292 21.7531,94.07146 24.2036,96.107583 L49.1422,116.7299 C50.2003,117.5716 51.4387,118.0731 52.8498,118.0731 C55.9261,118.0731 57.7832,116.3026 57.7832,113.2261 L57.7832,98.92651 L104.618,98.92651 C125.019,98.92651 137.994,87.80722 137.994,69.2409 L137.994,62.5025 C137.994,58.77 135.14,55.916 131.407,55.916 Z" id="Shape"></path>
                </g>
                <g id="Medium-L" transform="translate(1177.320000, 848.261000)">
                    <path d="M5.7947,59.8618 C9.0617,59.8618 11.5314,57.3816 11.5314,54.0671 L11.5314,48.4728 C11.5314,37.1109 18.9075,30.1444 30.964,30.1444 L78.6522,30.1444 L78.6522,44.8412 C78.6522,47.5536 80.2448,49.1093 82.9811,49.1093 C84.279,49.1093 85.392,48.664 86.386,47.8641 L110.71,27.9016 C112.931,26.0568 113.015,23.0814 110.71,21.2222 L86.386,1.2227 C85.392,0.4228 84.279,0 82.9811,0 C80.2448,0 78.6522,1.5332 78.6522,4.268 L78.6522,18.8938 L31.7807,18.8938 C12.4542,18.8938 0,29.5631 0,47.4568 L0,54.0671 C0,57.3816 2.5026,59.8618 5.7947,59.8618 Z M129.092,54.7012 C125.8,54.7012 123.308,57.1814 123.308,60.4959 L123.308,66.0903 C123.308,77.4522 115.932,84.41861 103.923,84.41861 L56.2573,84.41861 L56.2573,69.7852 C56.2573,67.0728 54.6172,65.5171 51.8585,65.5171 C50.6083,65.5171 49.4701,65.9624 48.4763,66.7622 L24.1293,86.72484 C21.9089,88.61701 21.872,91.54502 24.1293,93.404211 L48.4763,113.4037 C49.4701,114.1812 50.6083,114.6264 51.8585,114.6264 C54.6172,114.6264 56.2573,113.0932 56.2573,110.3584 L56.2573,95.66921 L103.129,95.66921 C122.455,95.66921 134.887,84.99994 134.887,67.1063 L134.887,60.4959 C134.887,57.1814 132.407,54.7012 129.092,54.7012 Z" id="Shape"></path>
                </g>
                <g id="Regular-L" transform="translate(882.630000, 851.110700)">
                    <path d="M4.7618,56.9085 C7.4782,56.9085 9.4709,54.9158 9.4709,52.1467 L9.4709,46.2837 C9.4709,34.856 16.8419,27.8318 28.8852,27.8318 L76.5956,27.8318 L76.5956,42.7699 C76.5956,45.0315 77.8998,46.2829 80.2167,46.2829 C81.3098,46.2829 82.2923,45.911 83.202,45.1897 L106.75,26.0553 C108.702,24.452 108.808,21.8811 106.75,20.2527 L83.202,1.0655 C82.2923,0.3443 81.3098,0 80.2167,0 C77.8998,0 76.5956,1.2238 76.5956,3.513 L76.5956,18.6047 L29.6767,18.6047 C11.7511,18.6047 0,28.687 0,45.7033 L0,52.1467 C0,54.9158 2.0203,56.9085 4.7618,56.9085 Z M126.073,53.1168 C123.332,53.1168 121.311,55.1094 121.311,57.8786 L121.311,63.7416 C121.311,75.1693 113.94,82.1935 101.95,82.1935 L54.2669,82.1935 L54.2669,67.3609 C54.2669,65.0994 52.91,63.848 50.5655,63.848 C49.5251,63.848 48.5175,64.2198 47.6078,64.9411 L24.0324,84.07552 C22.0798,85.73158 22.027,88.24971 24.0324,89.878113 L47.6078,109.0653 C48.5175,109.7589 49.5251,110.1308 50.5655,110.1308 C52.91,110.1308 54.2669,108.907 54.2669,106.6178 L54.2669,91.4206 L101.186,91.4206 C119.111,91.4206 130.835,81.3383 130.835,64.322 L130.835,57.8786 C130.835,55.1094 128.842,53.1168 126.073,53.1168 Z" id="Shape"></path>
                </g>
                <g id="Light-L" transform="translate(588.420000, 852.504000)">
                    <path d="M3.9412,55.0571 C6.2568,55.0571 7.8486,53.4653 7.8486,51.116 L7.8486,45.4247 C7.8486,33.2146 15.2005,26.1713 28.0073,26.1713 L73.7901,26.1713 L73.7901,41.2621 C73.7901,43.1419 74.8843,44.2025 76.8577,44.2025 C77.8172,44.2025 78.5898,43.9069 79.4613,43.243 L102.666,24.8338 C104.523,23.345 104.59,20.8313 102.666,19.3556 L79.4613,0.9127 C78.5898,0.2488 77.8172,0 76.8577,0 C74.8843,0 73.7901,1.0138 73.7901,2.9404 L73.7901,18.6237 L28.5125,18.6237 C11.3694,18.6237 -3.55271368e-15,28.1716 -3.55271368e-15,45.0543 L-3.55271368e-15,51.116 C-3.55271368e-15,53.4653 1.6386,55.0571 3.9412,55.0571 Z M121.893,52.2006 C119.591,52.2006 117.952,53.7925 117.952,56.1418 L117.952,61.833 C117.952,74.0432 110.6,81.08648 97.827,81.08648 L52.0912,81.08648 L52.0912,66.0631 C52.0912,64.1832 50.9633,63.1226 48.9432,63.1226 C48.0174,63.1226 47.2579,63.4182 46.3863,64.0822 L23.1354,82.49137 C21.2782,84.01383 21.2445,86.49379 23.1354,87.969511 L46.3863,106.4124 C47.2579,107.0296 48.0174,107.3252 48.9432,107.3252 C50.9633,107.3252 52.0912,106.3114 52.0912,104.3848 L52.0912,88.634078 L97.369,88.634078 C114.512,88.634078 125.835,79.08616 125.835,62.2035 L125.835,56.1418 C125.835,53.7925 124.243,52.2006 121.893,52.2006 Z" id="Shape"></path>
                </g>
                <g id="Thin-L" transform="translate(295.018000, 854.346600)">
                    <path d="M2.8558,52.6087 C4.6413,52.6087 5.7031,51.547 5.7031,49.753 L5.7031,44.2889 C5.7031,31.0438 13.0297,23.9753 26.8462,23.9753 L70.0796,23.9753 L70.0796,39.268 C70.0796,40.643 70.8961,41.4512 72.4151,41.4512 C73.198,41.4512 73.6928,41.2566 74.5139,40.6684 L97.264,23.2183 C98.995,21.881 99.012,19.4431 97.264,18.1693 L74.5139,0.7109 C73.6928,0.1226 73.198,0 72.4151,0 C70.8961,0 70.0796,0.7362 70.0796,2.1832 L70.0796,18.649 L26.9727,18.649 C10.8646,18.649 -3.55271368e-15,27.4901 -3.55271368e-15,44.1961 L-3.55271368e-15,49.753 C-3.55271368e-15,51.547 1.1337,52.6087 2.8558,52.6087 Z M116.365,50.9891 C114.643,50.9891 113.51,52.0509 113.51,53.8448 L113.51,59.3089 C113.51,72.554 106.183,79.62251 92.375,79.62251 L49.2137,79.62251 L49.2137,64.3467 C49.2137,62.9716 48.3886,62.1635 46.7977,62.1635 C46.0233,62.1635 45.5919,62.3581 44.7709,62.9463 L21.949,80.39635 C20.218,81.74212 20.2096,84.17159 21.949,85.44538 L44.7709,102.9038 C45.5919,103.4201 46.0233,103.6147 46.7977,103.6147 C48.3886,103.6147 49.2137,102.8785 49.2137,101.4315 L49.2137,84.94883 L92.32,84.94883 C108.429,84.94883 119.221,76.1077 119.221,59.4017 L119.221,53.8448 C119.221,52.0509 118.159,50.9891 116.365,50.9891 Z" id="Shape"></path>
                </g>
                <g id="Ultralight-L" transform="translate(-0.000000, 855.290400)">
                    <path d="M2.2998,51.3547 C3.8139,51.3547 4.6042,50.5644 4.6042,49.0548 L4.6042,43.7071 C4.6042,29.932 11.9179,22.8505 26.2515,22.8505 L68.179,22.8505 L68.179,38.2467 C68.179,39.3631 68.8534,40.042 70.1397,40.042 C70.832,40.042 71.1847,39.8991 71.9799,39.3496 L94.497,22.3909 C96.163,21.1311 96.154,18.732 94.497,17.5617 L71.9799,0.6074 C71.1847,0.058 70.832,0 70.1397,0 C68.8534,0 68.179,0.5939 68.179,1.7953 L68.179,18.6619 L26.1841,18.6619 C10.606,18.6619 -3.55271368e-15,27.1411 -3.55271368e-15,43.7565 L-3.55271368e-15,49.0548 C-3.55271368e-15,50.5644 0.8752,51.3547 2.2998,51.3547 Z M113.534,50.3685 C112.109,50.3685 111.234,51.1588 111.234,52.6683 L111.234,58.016 C111.234,71.7912 103.921,78.87264 89.582,78.87264 L47.7398,78.87264 L47.7398,63.4675 C47.7398,62.3511 47.0699,61.6722 45.6987,61.6722 C45.0019,61.6722 44.7386,61.8151 43.9434,62.3645 L21.3414,79.32326 C19.675,80.57853 19.6795,82.98215 21.3414,84.15251 L43.9434,101.1067 C44.7386,101.5713 45.0019,101.7142 45.6987,101.7142 C47.0699,101.7142 47.7398,101.1202 47.7398,99.9189 L47.7398,83.06123 L89.735,83.06123 C105.313,83.06123 115.834,74.5821 115.834,57.9666 L115.834,52.6683 C115.834,51.1588 115.044,50.3685 113.534,50.3685 Z" id="Shape"></path>
                </g>
                <g id="Black-M" transform="translate(2370.776900, 418.488100)">
                    <path d="M9.0192,59.4987 C13.9777,59.4987 17.9757,55.4435 17.9757,50.4796 L17.9757,47.4548 C17.9757,38.692 23.708,33.5573 33.3692,33.5573 L69.5561,33.5573 L69.5561,43.8719 C69.5561,47.9424 72.0614,50.4994 76.0172,50.4994 C77.9296,50.4994 79.3292,49.8389 80.4771,48.8725 L102.8221,29.7974 C105.7571,27.2831 105.7111,23.1136 102.8221,20.6506 L80.4771,1.6272 C79.3292,0.6608 77.9296,0 76.0172,0 C72.0614,0 69.5561,2.5572 69.5561,6.6275 L69.5561,15.9908 L34.0225,15.9908 C12.7928,15.9908 1.42108547e-14,26.8079 1.42108547e-14,44.7108 L1.42108547e-14,50.4796 C1.42108547e-14,55.4435 4.0549,59.4987 9.0192,59.4987 Z M112.6491,49.4451 C107.6851,49.4451 103.6871,53.5003 103.6871,58.4643 L103.6871,61.4891 C103.6871,70.2518 97.9541,75.3866 88.2991,75.3866 L52.1117,75.3866 L52.1117,64.9116 C52.1117,60.8411 49.6008,58.2842 45.6454,58.2842 C43.7385,58.2842 42.333,58.9446 41.1851,59.9111 L18.84,78.9861 C15.9054,81.5059 15.957,85.66989 18.84,88.13289 L41.1851,107.1563 C42.333,108.1231 43.7385,108.7835 45.6454,108.7835 C49.6008,108.7835 52.1117,106.2263 52.1117,102.15606 L52.1117,92.95301 L87.6451,92.95301 C108.8751,92.95301 121.6681,82.1359 121.6681,64.233 L121.6681,58.4643 C121.6681,53.5003 117.6131,49.4451 112.6491,49.4451 Z" id="Shape"></path>
                </g>
                <g id="Heavy-M" transform="translate(2076.116900, 421.841300)">
                    <path d="M7.8717,56.1111 C12.2105,56.1111 15.6833,52.5947 15.6833,48.2395 L15.6833,44.8334 C15.6833,36.1545 21.413,30.9498 30.8935,30.9498 L67.5229,30.9498 L67.5229,41.5409 C67.5229,45.1157 69.7036,47.3236 73.1956,47.3236 C74.8745,47.3236 76.1517,46.7408 77.2002,45.8628 L98.6241,27.6935 C101.2361,25.464 101.2251,21.8007 98.6241,19.6007 L77.2002,1.4586 C76.1517,0.5806 74.8745,0 73.1956,0 C69.7036,0 67.5229,2.2057 67.5229,5.7827 L67.5229,15.6161 L31.5758,15.6161 C11.9736,15.6161 -8.8817842e-15,25.7957 -8.8817842e-15,42.6027 L-8.8817842e-15,48.2395 C-8.8817842e-15,52.5947 3.5187,56.1111 7.8717,56.1111 Z M109.6771,47.6111 C105.3241,47.6111 101.8491,51.1275 101.8491,55.4828 L101.8491,58.8888 C101.8491,67.5677 96.1191,72.7724 86.6551,72.7724 L50.028,72.7724 L50.028,62.0832 C50.028,58.5085 47.8309,56.3005 44.3366,56.3005 C42.6741,56.3005 41.3828,56.8834 40.3343,57.7613 L18.9084,75.9307 C16.2966,78.1766 16.3238,81.82344 18.9084,84.02345 L40.3343,102.1656 C41.3828,103.0413 42.6741,103.6241 44.3366,103.6241 C47.8309,103.6241 50.028,101.4184 50.028,97.84145 L50.028,88.10611 L85.9751,88.10611 C105.5771,88.10611 117.5481,77.9265 117.5481,61.1195 L117.5481,55.4828 C117.5481,51.1275 114.0321,47.6111 109.6771,47.6111 Z" id="Shape"></path>
                </g>
                <g id="Bold-M" transform="translate(1781.716900, 425.592400)">
                    <path d="M6.588,52.3215 C10.2337,52.3215 13.1189,49.4078 13.1189,45.7335 L13.1189,41.901 C13.1189,33.3158 18.8458,28.0329 28.1241,28.0329 L65.2484,28.0329 L65.2484,38.9333 C65.2484,41.9534 67.066,43.771 70.0393,43.771 C71.457,43.771 72.5972,43.275 73.5345,42.4961 L93.9271,25.3398 C96.1781,23.4289 96.2061,20.332 93.9271,18.4262 L73.5345,1.2698 C72.5972,0.4909 71.457,0 70.0393,0 C67.066,0 65.2484,1.8125 65.2484,4.8377 L65.2484,15.1969 L28.8389,15.1969 C11.0572,15.1969 5.32907052e-15,24.6633 5.32907052e-15,40.2444 L5.32907052e-15,45.7335 C5.32907052e-15,49.4078 2.9188,52.3215 6.588,52.3215 Z M106.3521,45.5595 C102.6831,45.5595 99.7931,48.4731 99.7931,52.1475 L99.7931,55.98 C99.7931,64.5651 94.0661,69.848 84.8164,69.848 L47.6972,69.848 L47.6972,58.9192 C47.6972,55.8991 45.8509,54.0815 42.8725,54.0815 C41.4834,54.0815 40.3197,54.5776 39.3825,55.3565 L18.985,72.5128 C16.7342,74.4523 16.7341,77.52057 18.985,79.42638 L39.3825,96.5827 C40.3197,97.3565 41.4834,97.8526 42.8725,97.8526 C45.8509,97.8526 47.6972,96.0401 47.6972,93.01488 L47.6972,82.68409 L84.1067,82.68409 C101.8881,82.68409 112.9401,73.2177 112.9401,57.6366 L112.9401,52.1475 C112.9401,48.4731 110.0271,45.5595 106.3521,45.5595 Z" id="Shape"></path>
                </g>
                <g id="Semibold-M" transform="translate(1486.586900, 428.178300)">
                    <path d="M5.7031,49.7091 C8.8709,49.7091 11.351,47.2109 11.351,44.006 L11.351,39.8795 C11.351,31.359 17.0759,26.0221 26.2148,26.0221 L63.6804,26.0221 L63.6804,37.1358 C63.6804,39.7735 65.2477,41.322 67.8633,41.322 C69.101,41.322 70.1468,40.8858 71.0073,40.1751 L90.6891,23.7173 C92.6911,22.0261 92.7471,19.3195 90.6891,17.6165 L71.0073,1.1398 C70.1468,0.4291 69.101,0 67.8633,0 C65.2477,0 63.6804,1.5414 63.6804,4.1863 L63.6804,14.9079 L26.952,14.9079 C10.4255,14.9079 0,23.8827 0,38.6187 L0,44.006 C0,47.2109 2.5053,49.7091 5.7031,49.7091 Z M104.0601,44.1451 C100.8631,44.1451 98.3761,46.6433 98.3761,49.8482 L98.3761,53.9747 C98.3761,62.4952 92.6511,67.8321 83.5488,67.8321 L46.0904,67.8321 L46.0904,56.738 C46.0904,54.1003 44.4859,52.5518 41.8632,52.5518 C40.6626,52.5518 39.5869,52.988 38.7263,53.6987 L19.0378,70.1566 C17.0359,71.8848 17.017,74.55429 19.0378,76.25727 L38.7263,92.73401 C39.5869,93.4376 40.6626,93.8738 41.8632,93.8738 C44.4859,93.8738 46.0904,92.33238 46.0904,89.68755 L46.0904,78.94627 L82.8187,78.94627 C99.3451,78.94627 109.7631,69.9715 109.7631,55.2355 L109.7631,49.8482 C109.7631,46.6433 107.2651,44.1451 104.0601,44.1451 Z" id="Shape"></path>
                </g>
                <g id="Medium-M" transform="translate(1191.086900, 430.139100)">
                    <path d="M5.0321,47.7281 C7.8376,47.7281 10.0105,45.545 10.0105,42.6961 L10.0105,38.3466 C10.0105,29.8751 15.7339,24.4974 24.7672,24.4974 L62.4914,24.4974 L62.4914,35.7727 C62.4914,38.1205 63.869,39.4649 66.2135,39.4649 C67.3146,39.4649 68.2888,39.0741 69.0912,38.4152 L88.2331,22.4869 C90.0471,20.9623 90.1231,18.5518 88.2331,17.0026 L69.0912,1.0411 C68.2888,0.3822 67.3146,0 66.2135,0 C63.869,0 62.4914,1.3359 62.4914,3.6923 L62.4914,14.6888 L25.5214,14.6888 C9.9464,14.6888 -8.8817842e-15,23.2907 -8.8817842e-15,37.3859 L-8.8817842e-15,42.6961 C-8.8817842e-15,45.545 2.1918,47.7281 5.0321,47.7281 Z M102.3231,43.0727 C99.4821,43.0727 97.3011,45.2558 97.3011,48.1047 L97.3011,52.4542 C97.3011,60.9257 91.5771,66.3034 82.5876,66.3034 L44.872,66.3034 L44.872,55.0841 C44.872,52.7363 43.451,51.3919 41.0979,51.3919 C40.0402,51.3919 39.0312,51.7827 38.2288,52.4416 L19.0779,68.3699 C17.2646,69.938 17.2314,72.30506 19.0779,73.85426 L38.2288,89.81569 C39.0312,90.466 40.0402,90.85681 41.0979,90.85681 C43.451,90.85681 44.872,89.52097 44.872,87.16457 L44.872,76.11204 L81.842,76.11204 C97.4171,76.11204 107.3551,67.5101 107.3551,53.4149 L107.3551,48.1047 C107.3551,45.2558 105.1721,43.0727 102.3231,43.0727 Z" id="Shape"></path>
                </g>
                <g id="Regular-M" transform="translate(863.206000, 432.696700)">
                    <path d="M36.8978,45.1443 C39.2307,45.1443 41.0029,43.3721 41.0029,40.9874 L41.0029,36.3472 C41.0029,27.9396 46.7244,22.5086 55.6198,22.5086 L93.6815,22.5086 L93.6815,33.9948 C93.6815,35.9644 94.8116,37.0427 96.8023,37.0427 C97.7253,37.0427 98.6061,36.711 99.3327,36.1197 L117.7719,20.8821 C119.339,19.5747 119.4426,17.5503 117.7719,16.2017 L99.3327,0.9124 C98.6061,0.321 97.7253,0 96.8023,0 C94.8116,0 93.6815,1.0677 93.6815,3.0479 L93.6815,14.4029 L56.3962,14.4029 C42.0625,14.4029 32.7409,22.5186 32.7409,35.7779 L32.7409,40.9874 C32.7409,43.3721 34.5237,45.1443 36.8978,45.1443 Z M132.797,41.6738 C130.423,41.6738 128.64,43.446 128.64,45.8306 L128.64,50.4708 C128.64,58.8784 122.919,64.3095 114.0748,64.3095 L76.0237,64.3095 L76.0237,52.9268 C76.0237,50.9572 74.8419,49.8789 72.8406,49.8789 C71.9693,49.8789 71.0473,50.2105 70.3207,50.8019 L51.871,66.0395 C50.3038,67.3986 50.2521,69.37126 51.871,70.71986 L70.3207,86.00915 C71.0473,86.58999 71.9693,86.92162 72.8406,86.92162 C74.8419,86.92162 76.0237,85.85389 76.0237,83.87369 L76.0237,72.41518 L113.3091,72.41518 C127.643,72.41518 136.954,64.2995 136.954,51.0401 L136.954,45.8306 C136.954,43.446 135.182,41.6738 132.797,41.6738 Z M2.19783629,83.5784984 C3.49798301,83.5784984 4.45762417,82.5912021 4.45762417,81.3570975 L4.45762417,74.8470709 C4.45762417,73.6129663 3.49798301,72.5948347 2.19783629,72.5948347 C0.959628482,72.5948347 0,73.6129663 0,74.8470709 L0,81.3570975 C0,82.5912021 0.959628482,83.5784984 2.19783629,83.5784984 Z M10.5249121,93.8525725 C11.7940577,93.8525725 12.7846366,92.8343778 12.7846366,91.6002732 L12.7846366,64.6038953 C12.7846366,63.3697906 11.7940577,62.3207607 10.5249121,62.3207607 C9.25570318,62.3207607 8.29612542,63.3697906 8.29612542,64.6038953 L8.29612542,91.6002732 C8.29612542,92.8343778 9.25570318,93.8525725 10.5249121,93.8525725 Z M18.8209868,103.6021 C20.0901958,103.6021 21.0807747,102.583949 21.0807747,101.349832 L21.0807747,54.8543362 C21.0807747,53.6202316 20.0901958,52.6021 18.8209868,52.6021 C17.582779,52.6021 16.6231379,53.6202316 16.6231379,54.8543362 L16.6231379,101.349832 C16.6231379,102.583949 17.582779,103.6021 18.8209868,103.6021 Z M27.1480627,90.7055457 C28.4172083,90.7055457 29.3768494,89.7182494 29.3768494,88.4841448 L29.3768494,67.7200236 C29.3768494,66.485919 28.4172083,65.4677874 27.1480627,65.4677874 C25.8788537,65.4677874 24.919276,66.485919 24.919276,67.7200236 L24.919276,88.4841448 C24.919276,89.7182494 25.8788537,90.7055457 27.1480627,90.7055457 Z M35.4751386,98.5113537 C36.7133464,98.5113537 37.7039253,97.5240574 37.7039253,96.2899402 L37.7039253,59.9142219 C37.7039253,58.6801173 36.7133464,57.6619858 35.4751386,57.6619858 C34.1749918,57.6619858 33.2462884,58.6801173 33.2462884,59.9142219 L33.2462884,96.2899402 C33.2462884,97.5240574 34.1749918,98.5113537 35.4751386,98.5113537 Z M43.7712133,85.5530911 C45.0403588,85.5530911 46,84.5657948 46,83.3316901 L46,72.8724783 C46,71.6383737 45.0403588,70.6202421 43.7712133,70.6202421 C42.5020043,70.6202421 41.5424265,71.6383737 41.5424265,72.8724783 L41.5424265,83.3316901 C41.5424265,84.5657948 42.5020043,85.5530911 43.7712133,85.5530911 Z" id="Shape"></path>
                </g>
                <g id="Light-M" transform="translate(601.476900, 433.945800)">
                    <path d="M3.4211,43.4845 C5.3947,43.4845 6.8076,42.0717 6.8076,40.0634 L6.8076,35.5772 C6.8076,26.4681 12.5119,21.0199 22.0918,21.0199 L58.4253,21.0199 L58.4253,32.643 C58.4253,34.2704 59.3671,35.1776 61.0499,35.1776 C61.8531,35.1776 62.5457,34.9144 63.2381,34.3743 L81.3692,19.787 C82.8509,18.5823 82.9201,16.6092 81.3692,15.3975 L63.2381,0.7755 C62.5457,0.2355 61.8531,0 61.0499,0 C59.3671,0 58.4253,0.8795 58.4253,2.5346 L58.4253,14.42 L22.6115,14.42 C8.9794,14.42 0,22.0566 0,35.1962 L0,40.0634 C0,42.0717 1.4405,43.4845 3.4211,43.4845 Z M96.3091,40.8525 C94.3281,40.8525 92.8871,42.2653 92.8871,44.2735 L92.8871,48.7597 C92.8871,57.8689 87.1832,63.3171 77.6379,63.3171 L41.3321,63.3171 L41.3321,51.7633 C41.3321,50.1359 40.3557,49.2287 38.6453,49.2287 C37.8767,49.2287 37.1771,49.4919 36.4847,50.0319 L18.3259,64.6193 C16.8443,65.8586 16.8096,67.79705 18.3259,69.00876 L36.4847,83.63073 C37.1771,84.14313 37.8767,84.40631 38.6453,84.40631 C40.3557,84.40631 41.3321,83.5268 41.3321,81.87171 L41.3321,69.91698 L77.146,69.91698 C90.7781,69.91698 99.7301,62.2804 99.7301,49.1408 L99.7301,44.2735 C99.7301,42.2653 98.3171,40.8525 96.3091,40.8525 Z" id="Shape"></path>
                </g>
                <g id="Thin-M" transform="translate(307.727900, 435.597800)">
                    <path d="M2.448,41.2894 C3.9464,41.2894 4.884,40.3518 4.884,38.8414 L4.884,34.5589 C4.884,24.5219 10.5657,19.0511 21.0508,19.0511 L55.0986,19.0511 L55.0986,30.8552 C55.0986,32.03 55.7915,32.7109 57.0669,32.7109 C57.7117,32.7109 58.1554,32.5382 58.8025,32.0661 L76.5263,18.3387 C77.8948,17.2697 77.9188,15.3646 76.5263,14.3339 L58.8025,0.5945 C58.1554,0.1224 57.7117,0 57.0669,0 C55.7915,0 55.0986,0.6306 55.0986,1.8557 L55.0986,14.4427 L21.231,14.4427 C8.5268,14.4427 0,21.4456 0,34.4268 L0,38.8414 C0,40.3518 0.9879,41.2894 2.448,41.2894 Z M91.3521,39.7662 C89.8921,39.7662 88.9041,40.7038 88.9041,42.2142 L88.9041,46.4967 C88.9041,56.5337 83.2229,62.0045 72.7497,62.0045 L38.7522,62.0045 L38.7522,50.2244 C38.7522,49.0496 38.0473,48.3688 36.7217,48.3688 C36.0888,48.3688 35.6835,48.5414 35.0364,49.0136 L17.2623,62.7409 C15.8938,63.8219 15.8818,65.71507 17.2623,66.74574 L35.0364,80.48511 C35.6835,80.90698 36.0888,81.07964 36.7217,81.07964 C38.0473,81.07964 38.7522,80.44907 38.7522,79.22397 L38.7522,66.61294 L72.6198,66.61294 C85.3241,66.61294 93.8001,59.61 93.8001,46.6288 L93.8001,42.2142 C93.8001,40.7038 92.8631,39.7662 91.3521,39.7662 Z" id="Shape"></path>
                </g>
                <g id="Ultralight-M" transform="translate(12.534900, 436.444000)">
                    <path d="M1.9496,40.165 C3.2045,40.165 3.8987,39.4708 3.8987,38.2155 L3.8987,34.0373 C3.8987,23.525 9.5688,18.0426 20.5176,18.0426 L53.3947,18.0426 L53.3947,29.9395 C53.3947,30.8824 53.9601,31.4474 55.0268,31.4474 C55.5905,31.4474 55.9067,31.3211 56.5306,30.8837 L74.0458,17.5968 C75.3563,16.5974 75.3571,14.727 74.0458,13.7891 L56.5306,0.5018 C55.9067,0.0644 55.5905,0 55.0268,0 C53.9601,0 53.3947,0.503 53.3947,1.5079 L53.3947,14.4542 L20.524,14.4542 C8.295,14.4542 -1.77635684e-15,21.1326 -1.77635684e-15,34.0326 L-1.77635684e-15,38.2155 C-1.77635684e-15,39.4708 0.7561,40.165 1.9496,40.165 Z M88.8141,39.2098 C87.6211,39.2098 86.8645,39.904 86.8645,41.1593 L86.8645,45.3375 C86.8645,55.8498 81.1944,61.3322 70.246,61.3322 L37.4308,61.3322 L37.4308,49.4362 C37.4308,48.4932 36.865,47.9283 35.7364,47.9283 C35.1731,47.9283 34.9184,48.0545 34.2945,48.4919 L16.7175,61.7788 C15.407,62.7787 15.4065,64.6486 16.7175,65.58657 L34.2945,78.87388 C34.9184,79.2494 35.1731,79.37569 35.7364,79.37569 C36.865,79.37569 37.4308,78.87262 37.4308,77.86775 L37.4308,64.92058 L70.3016,64.92058 C82.5306,64.92058 90.7641,58.2422 90.7641,45.3422 L90.7641,41.1593 C90.7641,39.904 90.0691,39.2098 88.8141,39.2098 Z" id="Shape"></path>
                </g>
                <g id="Black-S" transform="translate(2383.441620, -0.000000)">
                    <path d="M7.37308,47.5586 C11.42578,47.5586 14.69728,44.2383 14.69728,40.1855 L14.69728,37.9394 C14.69728,31.0058 19.18948,27.0019 26.85548,27.0019 L54.98048,27.0019 L54.98048,35.0097 C54.98048,38.33 57.03128,40.4297 60.25388,40.4297 C61.81638,40.4297 62.93948,39.8926 63.86718,39.1113 L81.64058,23.9258 C84.03318,21.875 83.98438,18.457 81.64058,16.455 L63.86718,1.3183 C62.93948,0.5371 61.81638,0 60.25388,0 C57.03128,0 54.98048,2.0996 54.98048,5.4199 L54.98048,12.6465 L27.34378,12.6465 C10.25388,12.6465 1.77635684e-15,21.289 1.77635684e-15,35.6445 L1.77635684e-15,40.1855 C1.77635684e-15,44.2383 3.32028,47.5586 7.37308,47.5586 Z M88.96488,39.2578 C84.91208,39.2578 81.64058,42.5781 81.64058,46.6308 L81.64058,48.8769 C81.64058,55.8105 77.14848,59.8144 69.48238,59.8144 L41.35738,59.8144 L41.35738,51.6601 C41.35738,48.3398 39.30668,46.2402 36.08398,46.2402 C34.52148,46.2402 33.39848,46.7773 32.47068,47.5586 L14.69728,62.7441 C12.30468,64.7949 12.35348,68.2129 14.69728,70.2148 L32.47068,85.35153 C33.39848,86.13278 34.52148,86.66989 36.08398,86.66989 C39.30668,86.66989 41.35738,84.57028 41.35738,81.2499719 L41.35738,74.16989 L68.99418,74.16989 C86.08398,74.16989 96.33838,65.5273 96.33838,51.1718 L96.33838,46.6308 C96.33838,42.5781 93.01738,39.2578 88.96488,39.2578 Z" id="Shape"></path>
                </g>
                <g id="Heavy-S" transform="translate(2088.201620, 2.708200)">
                    <path d="M6.48568,44.8734 C10.05438,44.8734 12.92248,41.968 12.92248,38.3878 L12.92248,35.7959 C12.92248,29.0237 17.41468,24.9621 24.83868,24.9621 L53.56298,24.9621 L53.56298,33.1889 C53.56298,36.1289 55.36018,37.9519 58.22558,37.9519 C59.60368,37.9519 60.64608,37.4725 61.49318,36.7604 L78.51748,22.2663 C80.64498,20.446 80.63078,17.4544 78.51748,15.6599 L61.49318,1.1916 C60.64608,0.4795 59.60368,0 58.22558,0 C55.36018,0 53.56298,1.823 53.56298,4.763 L53.56298,12.3238 L25.38458,12.3238 C9.59698,12.3238 1.77635684e-15,20.4824 1.77635684e-15,33.9159 L1.77635684e-15,38.3878 C1.77635684e-15,41.968 2.90548,44.8734 6.48568,44.8734 Z M86.90198,37.7942 C83.32178,37.7942 80.45358,40.6997 80.45358,44.2799 L80.45358,46.8717 C80.45358,53.644 75.96138,57.7055 68.54898,57.7055 L39.82468,57.7055 L39.82468,49.3899 C39.82468,46.4499 38.01588,44.6268 35.15048,44.6268 C33.78388,44.6268 32.72998,45.1063 31.88298,45.8184 L14.85858,60.3125 C12.73108,62.1443 12.75688,65.1244 14.85858,66.9189 L31.88298,81.38717 C32.72998,82.09927 33.78388,82.57876 35.15048,82.57876 C38.01588,82.57876 39.82468,80.75574 39.82468,77.815731 L39.82468,70.34382 L68.00308,70.34382 C83.79058,70.34382 93.38738,62.1853 93.38738,48.7518 L93.38738,44.2799 C93.38738,40.6997 90.48238,37.7942 86.90198,37.7942 Z" id="Shape"></path>
                </g>
                <g id="Bold-S" transform="translate(1793.141620, 5.737300)">
                    <path d="M5.49318,41.8701 C8.52048,41.8701 10.93748,39.4287 10.93748,36.3769 L10.93748,33.3984 C10.93748,26.8066 15.42968,22.6806 22.58298,22.6806 L51.97758,22.6806 L51.97758,31.1523 C51.97758,33.667 53.49118,35.1806 55.95708,35.1806 C57.12888,35.1806 58.08108,34.7656 58.83788,34.1308 L75.02438,20.4101 C76.85548,18.8476 76.87988,16.333 75.02438,14.7705 L58.83788,1.0498 C58.08108,0.415 57.12888,0 55.95708,0 C53.49118,0 51.97758,1.5136 51.97758,4.0283 L51.97758,11.9629 L23.19338,11.9629 C8.86228,11.9629 0,19.5801 0,31.9824 L0,36.3769 C0,39.4287 2.44138,41.8701 5.49318,41.8701 Z M84.59478,36.1572 C81.54298,36.1572 79.12598,38.5986 79.12598,41.6504 L79.12598,44.6289 C79.12598,51.2207 74.63378,55.3467 67.50488,55.3467 L38.11038,55.3467 L38.11038,46.8506 C38.11038,44.3359 36.57228,42.8222 34.10648,42.8222 C32.95898,42.8222 31.98238,43.2373 31.22558,43.872 L15.03908,57.5927 C13.20798,59.1797 13.20798,61.6699 15.03908,63.2324 L31.22558,76.9531 C31.98238,77.58787 32.95898,78.00291 34.10648,78.00291 C36.57228,78.00291 38.11038,76.489234 38.11038,73.97459 L38.11038,66.06443 L66.89458,66.06443 C81.22558,66.06443 90.08788,58.4472 90.08788,46.0449 L90.08788,41.6504 C90.08788,38.5986 87.64648,36.1572 84.59478,36.1572 Z" id="Shape"></path>
                </g>
                <g id="Semibold-S" transform="translate(1497.561620, 7.825700)">
                    <path d="M4.80888,39.7995 C7.46298,39.7995 9.56898,37.678 9.56898,34.9906 L9.56898,31.7455 C9.56898,25.2781 14.06118,21.1077 21.02788,21.1077 L50.88448,21.1077 L50.88448,29.7482 C50.88448,31.9696 52.20268,33.27 54.39298,33.27 C55.42268,33.27 56.31258,32.8994 57.00728,32.3179 L72.61608,19.1304 C74.24278,17.7457 74.29388,15.5598 72.61608,14.1573 L57.00728,0.952 C56.31258,0.3706 55.42268,0 54.39298,0 C52.20268,0 50.88448,1.3003 50.88448,3.5217 L50.88448,11.714 L21.68258,11.714 C8.35578,11.714 0,18.958 0,30.6494 L0,34.9906 C0,37.678 2.12148,39.7995 4.80888,39.7995 Z M83.00398,35.0286 C80.31658,35.0286 78.21068,37.1501 78.21068,39.8375 L78.21068,43.0826 C78.21068,49.55 73.71848,53.7204 66.78508,53.7204 L36.92838,53.7204 L36.92838,45.0999 C36.92838,42.8785 35.57698,41.5781 33.38658,41.5781 C32.39028,41.5781 31.46698,41.9487 30.77238,42.5301 L15.16348,55.7176 C13.53678,57.1357 13.51908,59.2882 15.16348,60.6908 L30.77238,73.896049 C31.46698,74.47749 32.39028,74.8481 33.38658,74.8481 C35.57698,74.8481 36.92838,73.5477094 36.92838,71.32632 L36.92838,63.114 L66.13028,63.114 C79.45718,63.114 87.81288,55.8701 87.81288,44.1787 L87.81288,39.8375 C87.81288,37.1501 85.69138,35.0286 83.00398,35.0286 Z" id="Shape"></path>
                </g>
                <g id="Medium-S" transform="translate(1201.721620, 9.409200)">
                    <path d="M4.29008,38.2294 C6.66118,38.2294 8.53128,36.3505 8.53128,33.9394 L8.53128,30.4921 C8.53128,24.1191 13.02348,19.915 19.84868,19.915 L50.05568,19.915 L50.05568,28.6835 C50.05568,30.6826 51.22558,31.8212 53.20708,31.8212 C54.12888,31.8212 54.97168,31.4843 55.61918,30.9433 L70.79008,18.1601 C72.26168,16.9101 72.33298,14.9736 70.79008,13.6923 L55.61918,0.8779 C54.97168,0.3369 54.12888,0 53.20708,0 C51.22558,0 50.05568,1.1386 50.05568,3.1376 L50.05568,11.5253 L20.53708,11.5253 C7.97168,11.5253 1.77635684e-15,18.4863 1.77635684e-15,29.6386 L1.77635684e-15,33.9394 C1.77635684e-15,36.3505 1.87888,38.2294 4.29008,38.2294 Z M81.79788,34.1728 C79.38668,34.1728 77.51658,36.0517 77.51658,38.4628 L77.51658,41.9101 C77.51658,48.2832 73.02438,52.4873 66.23928,52.4873 L36.03228,52.4873 L36.03228,43.7724 C36.03228,41.7734 34.82228,40.6347 32.84078,40.6347 C31.95898,40.6347 31.07618,40.9716 30.42868,41.5126 L15.25778,54.2958 C13.78618,55.5859 13.75488,57.4824 15.25778,58.7636 L30.42868,71.578077 C31.07618,72.119092 31.95898,72.456006 32.84078,72.456006 C34.82228,72.456006 36.03228,71.317334 36.03228,69.31831 L36.03228,60.8769 L65.55078,60.8769 C78.11618,60.8769 86.08788,53.916 86.08788,42.7636 L86.08788,38.4628 C86.08788,36.0517 84.20898,34.1728 81.79788,34.1728 Z" id="Shape"></path>
                </g>
                <g id="Regular-S" transform="translate(906.131620, 11.474600)">
                    <path d="M3.61328,36.1816 C5.61528,36.1816 7.17778,34.6191 7.17778,32.5683 L7.17778,28.8574 C7.17778,22.6074 11.66988,18.3594 18.31058,18.3594 L48.97458,18.3594 L48.97458,27.2949 C48.97458,29.0039 49.95118,29.9316 51.66018,29.9316 C52.44138,29.9316 53.22268,29.6387 53.80858,29.1504 L68.40818,16.8945 C69.67778,15.8203 69.77538,14.209 68.40818,13.0859 L53.80858,0.7812 C53.22268,0.293 52.44138,0 51.66018,0 C49.95118,0 48.97458,0.9277 48.97458,2.6367 L48.97458,11.2793 L19.04298,11.2793 C7.47068,11.2793 1.77635684e-15,17.8711 1.77635684e-15,28.3203 L1.77635684e-15,32.5683 C1.77635684e-15,34.6191 1.56248,36.1816 3.61328,36.1816 Z M80.22458,33.0566 C78.17388,33.0566 76.61138,34.6191 76.61138,36.6699 L76.61138,40.3808 C76.61138,46.6308 72.11918,50.8789 65.52738,50.8789 L34.86328,50.8789 L34.86328,42.041 C34.86328,40.332 33.83788,39.4043 32.12888,39.4043 C31.39648,39.4043 30.56638,39.6972 29.98048,40.1855 L15.38088,52.4414 C14.11138,53.5644 14.06248,55.1269 15.38088,56.25 L29.98048,68.55467 C30.56638,69.04295 31.39648,69.335919 32.12888,69.335919 C33.83788,69.335919 34.86328,68.40818 34.86328,66.6992 L34.86328,57.959 L64.79488,57.959 C76.36718,57.959 83.83788,51.3672 83.83788,40.918 L83.83788,36.6699 C83.83788,34.6191 82.27538,33.0566 80.22458,33.0566 Z" id="Shape"></path>
                </g>
                <g id="Light-S" transform="translate(611.401620, 12.579600)">
                    <path d="M2.96238,34.7133 C4.64648,34.7133 5.89108,33.4687 5.89108,31.7509 L5.89108,28.1762 C5.89108,21.3056 10.36818,17.0424 17.61428,17.0424 L46.74958,17.0424 L46.74958,26.0991 C46.74958,27.5053 47.55958,28.2817 48.99608,28.2817 C49.67138,28.2817 50.28618,28.0493 50.84178,27.6064 L65.16898,15.9257 C66.36278,14.9423 66.43018,13.3764 65.16898,12.3745 L50.84178,0.6601 C50.28618,0.2172 49.67138,0 48.99608,0 C47.55958,0 46.74958,0.7612 46.74958,2.1826 L46.74958,11.2944 L18.11968,11.2944 C7.16798,11.2944 0,17.4624 0,27.8056 L0,31.7509 C0,33.4687 1.25978,34.7133 2.96238,34.7133 Z M76.90968,32.33 C75.20708,32.33 73.94728,33.5747 73.94728,35.2924 L73.94728,38.8672 C73.94728,45.7378 69.47028,50.0009 62.25788,50.0009 L33.13768,50.0009 L33.13768,41.0117 C33.13768,39.6054 32.29398,38.8291 30.84228,38.8291 C30.20068,38.8291 29.56738,39.0615 29.01178,39.5044 L14.66948,51.185 C13.47558,52.2021 13.44188,53.7343 14.66948,54.7363 L29.01178,66.45065 C29.56738,66.87839 30.20068,67.11081 30.84228,67.11081 C32.29398,67.11081 33.13768,66.34958 33.13768,64.92819 L33.13768,55.749 L61.76758,55.749 C72.71928,55.749 79.87208,49.581 79.87208,39.2378 L79.87208,35.2924 C79.87208,33.5747 78.62748,32.33 76.90968,32.33 Z" id="Shape"></path>
                </g>
                <g id="Thin-S" transform="translate(317.314620, 14.041000)">
                    <path d="M2.10158,32.7715 C3.36528,32.7715 4.18948,31.9473 4.18948,30.6699 L4.18948,27.2754 C4.18948,19.584 8.64648,15.3008 16.69338,15.3008 L43.80668,15.3008 L43.80668,24.5176 C43.80668,25.5234 44.39658,26.0996 45.47268,26.0996 C46.00788,26.0996 46.40238,25.9473 46.91798,25.5644 L60.88478,14.6445 C61.97858,13.7812 62.00588,12.2754 60.88478,11.4336 L46.91798,0.5 C46.40238,0.1172 46.00788,0 45.47268,0 C44.39658,0 43.80668,0.541 43.80668,1.582 L43.80668,11.3144 L16.89848,11.3144 C6.76758,11.3144 1.77635684e-15,16.9218 1.77635684e-15,27.125 L1.77635684e-15,30.6699 C1.77635684e-15,31.9473 0.85938,32.7715 2.10158,32.7715 Z M72.52548,31.3691 C71.28328,31.3691 70.42388,32.1933 70.42388,33.4707 L70.42388,36.8652 C70.42388,44.5566 65.96688,48.8398 57.93368,48.8398 L30.85548,48.8398 L30.85548,39.6504 C30.85548,38.6445 30.25198,38.0683 29.14068,38.0683 C28.61918,38.0683 28.24608,38.2207 27.73048,38.6035 L13.72858,49.5234 C12.63478,50.4004 12.62108,51.8926 13.72858,52.7344 L27.73048,63.66797 C28.24608,64.01563 28.61918,64.16798 29.14068,64.16798 C30.25198,64.16798 30.85548,63.62696 30.85548,62.58594 L30.85548,52.8262 L57.76378,52.8262 C67.89458,52.8262 74.62708,47.2187 74.62708,37.0156 L74.62708,33.4707 C74.62708,32.1933 73.80278,31.3691 72.52548,31.3691 Z" id="Shape"></path>
                </g>
                <g id="Ultralight-S" transform="translate(21.946620, 14.789500)">
                    <path d="M1.66068,31.7769 C2.70898,31.7769 3.31788,31.168 3.31788,30.1162 L3.31788,26.814 C3.31788,18.7022 7.76468,14.4087 16.22168,14.4087 L42.29938,14.4087 L42.29938,23.7075 C42.29938,24.5083 42.77638,24.982 43.66808,24.982 C44.13138,24.982 44.41318,24.8706 44.90828,24.5186 L58.69048,13.9883 C59.73298,13.1865 59.73988,11.7114 58.69048,10.9517 L44.90828,0.418 C44.41318,0.0659 44.13138,0 43.66808,0 C42.77638,0 42.29938,0.4282 42.29938,1.2744 L42.29938,11.3247 L16.27298,11.3247 C6.56248,11.3247 0,16.645 0,26.7764 L0,30.1162 C0,31.168 0.65428,31.7769 1.66068,31.7769 Z M70.27988,30.877 C69.27348,30.877 68.61918,31.4859 68.61918,32.5376 L68.61918,35.8399 C68.61918,43.9517 64.17248,48.2451 55.71888,48.2451 L29.68658,48.2451 L29.68658,38.9531 C29.68658,38.1524 29.20608,37.6787 28.26908,37.6787 C27.80908,37.6787 27.56938,37.7901 27.07428,38.1421 L13.24658,48.6724 C12.20408,49.4776 12.20068,50.9492 13.24658,51.709 L27.07428,62.24272 C27.56938,62.54936 27.80908,62.66069 28.26908,62.66069 C29.20608,62.66069 29.68658,62.23247 29.68658,61.38627 L29.68658,51.3292 L55.71298,51.3292 C65.42348,51.3292 71.94048,46.0088 71.94048,35.8775 L71.94048,32.5376 C71.94048,31.4859 71.33168,30.877 70.27988,30.877 Z" id="Shape"></path>
                </g>
            </g>
        </g>
    </g>
</svg>