
<svg width="3300px" height="2200px" viewBox="0 0 3300 2200" version="1.1" xmlns="http://www.w3.org/2000/svg" xmlns:xlink="http://www.w3.org/1999/xlink">
    <g id="Page-3" stroke="none" stroke-width="1" fill="none" fill-rule="evenodd">
        <g id="goforward">
            <g id="Notes">
                <rect id="artboard" fill="#FFFFFF" fill-rule="nonzero" x="0" y="0" width="3300" height="2200"></rect>
                <line x1="263" y1="292" x2="3036" y2="292" id="Path" stroke="#000000" stroke-width="0.5"></line>
                <text id="Weight/Scale-Variations" fill="#000000" fill-rule="nonzero" font-family="Helvetica" font-size="13" font-weight="normal">
                    <tspan x="263" y="322">Weight/Scale Variations</tspan>
                </text>
                <text id="Ultralight" fill="#000000" fill-rule="nonzero" font-family="Helvetica" font-size="13" font-weight="normal">
                    <tspan x="533.711" y="322">Ultralight</tspan>
                </text>
                <text id="Thin" fill="#000000" fill-rule="nonzero" font-family="Helvetica" font-size="13" font-weight="normal">
                    <tspan x="843.422" y="322">Thin</tspan>
                </text>
                <text id="Light" fill="#000000" fill-rule="nonzero" font-family="Helvetica" font-size="13" font-weight="normal">
                    <tspan x="1138.63" y="322">Light</tspan>
                </text>
                <text id="Regular" fill="#000000" fill-rule="nonzero" font-family="Helvetica" font-size="13" font-weight="normal">
                    <tspan x="1426.84" y="322">Regular</tspan>
                </text>
                <text id="Medium" fill="#000000" fill-rule="nonzero" font-family="Helvetica" font-size="13" font-weight="normal">
                    <tspan x="1723.06" y="322">Medium</tspan>
                </text>
                <text id="Semibold" fill="#000000" fill-rule="nonzero" font-family="Helvetica" font-size="13" font-weight="normal">
                    <tspan x="2015.77" y="322">Semibold</tspan>
                </text>
                <text id="Bold" fill="#000000" fill-rule="nonzero" font-family="Helvetica" font-size="13" font-weight="normal">
                    <tspan x="2326.48" y="322">Bold</tspan>
                </text>
                <text id="Heavy" fill="#000000" fill-rule="nonzero" font-family="Helvetica" font-size="13" font-weight="normal">
                    <tspan x="2618.19" y="322">Heavy</tspan>
                </text>
                <text id="Black" fill="#000000" fill-rule="nonzero" font-family="Helvetica" font-size="13" font-weight="normal">
                    <tspan x="2917.4" y="322">Black</tspan>
                </text>
                <line x1="263" y1="1903" x2="3036" y2="1903" id="Path" stroke="#000000" stroke-width="0.5"></line>
                <g id="Group" transform="translate(264.367190, 1918.068400)" fill="#000000" fill-rule="nonzero">
                    <path d="M7.88086,15.761678 C12.18751,15.761678 15.77151,12.18746 15.77151,7.88082 C15.77151,3.5742 12.17771,0 7.87109,0 C3.57422,0 -8.8817842e-16,3.5742 -8.8817842e-16,7.88082 C-8.8817842e-16,12.18746 3.58398,15.761678 7.88086,15.761678 Z M7.88086,14.277303 C4.33593,14.277303 1.5039,11.43551 1.5039,7.88082 C1.5039,4.3261 4.32617,1.4843 7.87109,1.4843 C11.42581,1.4843 14.27731,4.3261 14.27731,7.88082 C14.27731,11.43551 11.43551,14.277303 7.88086,14.277303 Z M4.28711,7.88082 C4.28711,8.31051 4.58984,8.60348 5.03906,8.60348 L7.13867,8.60348 L7.13867,10.72262 C7.13867,11.16207 7.43164,11.4648 7.86133,11.4648 C8.31054,11.4648 8.60351,11.16207 8.60351,10.72262 L8.60351,8.60348 L10.72261,8.60348 C11.16211,8.60348 11.46481,8.31051 11.46481,7.88082 C11.46481,7.44137 11.16211,7.13863 10.72261,7.13863 L8.60351,7.13863 L8.60351,5.02926 C8.60351,4.58 8.31054,4.2773 7.86133,4.2773 C7.43164,4.2773 7.13867,4.58 7.13867,5.02926 L7.13867,7.13863 L5.03906,7.13863 C4.58984,7.13863 4.28711,7.44137 4.28711,7.88082 Z" id="Shape"></path>
                </g>
                <g id="Group" transform="translate(283.615050, 1915.988300)" fill="#000000" fill-rule="nonzero">
                    <path d="M9.96095,19.92186 C15.41015,19.92186 19.92185,15.40037 19.92185,9.96092 C19.92185,4.5117 15.40035,0 9.95115,0 C4.51172,0 8.8817842e-16,4.5117 8.8817842e-16,9.96092 C8.8817842e-16,15.40037 4.52148,19.92186 9.96095,19.92186 Z M9.96095,18.2617 C5.35156,18.2617 1.66992,14.57029 1.66992,9.96092 C1.66992,5.3515 5.34179,1.6601 9.95115,1.6601 C14.56055,1.6601 18.26175,5.3515 18.26175,9.96092 C18.26175,14.57029 14.57035,18.2617 9.96095,18.2617 Z M5.42968,9.96092 C5.42968,10.43943 5.76172,10.7617 6.25976,10.7617 L9.13085,10.7617 L9.13085,13.64256 C9.13085,14.13084 9.46285,14.47264 9.94145,14.47264 C10.42965,14.47264 10.77145,14.14061 10.77145,13.64256 L10.77145,10.7617 L13.65235,10.7617 C14.14065,10.7617 14.48245,10.43943 14.48245,9.96092 C14.48245,9.47264 14.14065,9.13084 13.65235,9.13084 L10.77145,9.13084 L10.77145,6.2597 C10.77145,5.7617 10.42965,5.4199 9.94145,5.4199 C9.46285,5.4199 9.13085,5.7617 9.13085,6.2597 L9.13085,9.13084 L6.25976,9.13084 C5.76172,9.13084 5.42968,9.47264 5.42968,9.96092 Z" id="Shape"></path>
                </g>
                <g id="Group" transform="translate(307.901860, 1913.224600)" fill="#000000" fill-rule="nonzero">
                    <path d="M12.71484,25.43946 C19.67774,25.43946 25.43944,19.6777438 25.43944,12.72462 C25.43944,5.7617 19.66794,0 12.70504,0 C5.75195,0 0,5.7617 0,12.72462 C0,19.6777438 5.76172,25.43946 12.71484,25.43946 Z M12.71484,23.62306 C6.67969,23.62306 1.82617,18.75978 1.82617,12.72462 C1.82617,6.6797 6.66992,1.8262 12.70504,1.8262 C18.75004,1.8262 23.61324,6.6797 23.61324,12.72462 C23.61324,18.75978 18.75974,23.62306 12.71484,23.62306 Z M6.94336,12.72462 C6.94336,13.2422 7.31445,13.60352 7.86134,13.60352 L11.80664,13.60352 L11.80664,17.5586 C11.80664,18.09571 12.17774,18.47657 12.69534,18.47657 C13.23244,18.47657 13.60354,18.10548 13.60354,17.5586 L13.60354,13.60352 L17.55864,13.60352 C18.09574,13.60352 18.47654,13.2422 18.47654,12.72462 C18.47654,12.17774 18.10544,11.80665 17.55864,11.80665 L13.60354,11.80665 L13.60354,7.8613 C13.60354,7.3145 13.23244,6.9336 12.69534,6.9336 C12.17774,6.9336 11.80664,7.3145 11.80664,7.8613 L11.80664,11.80665 L7.86134,11.80665 C7.31445,11.80665 6.94336,12.17774 6.94336,12.72462 Z" id="Shape"></path>
                </g>
                <text id="Design-Variations" fill="#000000" fill-rule="nonzero" font-family="Helvetica" font-size="13" font-weight="normal">
                    <tspan x="263" y="1953">Design Variations</tspan>
                </text>
                <text id="Symbols-are-supported-in-up-to-nine-weights-and-three-scales." fill="#000000" fill-rule="nonzero" font-family="Helvetica" font-size="13" font-weight="normal">
                    <tspan x="263" y="1971">Symbols are supported in up to nine weights and three scales.</tspan>
                </text>
                <text id="For-optimal-layout-with-text-and-other-symbols,-vertically-align" fill="#000000" fill-rule="nonzero" font-family="Helvetica" font-size="13" font-weight="normal">
                    <tspan x="263" y="1989">For optimal layout with text and other symbols, vertically align</tspan>
                </text>
                <text id="symbols-with-the-adjacent-text." fill="#000000" fill-rule="nonzero" font-family="Helvetica" font-size="13" font-weight="normal">
                    <tspan x="263" y="2007">symbols with the adjacent text.</tspan>
                </text>
                <line x1="776" y1="1919" x2="776" y2="1933" id="Path" stroke="#00AEEF" stroke-width="0.5"></line>
                <g id="Group" transform="translate(778.490230, 1918.732400)" fill="#000000" fill-rule="nonzero">
                    <path d="M0.82032,14.42385 C1.33789,14.42385 1.5918,14.2285375 1.77735,13.681662 L3.03711,10.2344 L8.79887,10.2344 L10.05857,13.681662 C10.24417,14.2285375 10.49807,14.42385 11.00587,14.42385 C11.52347,14.42385 11.85547,14.11135 11.85547,13.623069 C11.85547,13.457053 11.82617,13.300803 11.74807,13.09572 L7.16797,0.8985 C6.94336,0.3028 6.54297,0 5.91797,0 C5.3125,0 4.90235,0.293 4.6875,0.8887 L0.10743,13.10549 C0.0293,13.310569 -4.4408921e-16,13.466819 -4.4408921e-16,13.632834 C-4.4408921e-16,14.121116 0.3125,14.42385 0.82032,14.42385 Z M3.51563,8.75002 L5.88868,2.1778 L5.9375,2.1778 L8.31057,8.75002 L3.51563,8.75002 Z" id="Shape"></path>
                </g>
                <line x1="793.197" y1="1919" x2="793.197" y2="1933" id="Path" stroke="#00AEEF" stroke-width="0.5"></line>
                <text id="Margins" fill="#000000" fill-rule="nonzero" font-family="Helvetica" font-size="13" font-weight="normal">
                    <tspan x="776" y="1953">Margins</tspan>
                </text>
                <text id="Leading-and-trailing-margins-on-the-left-and-right-side-of-each-symbol" fill="#000000" fill-rule="nonzero" font-family="Helvetica" font-size="13" font-weight="normal">
                    <tspan x="776" y="1971">Leading and trailing margins on the left and right side of each symbol</tspan>
                </text>
                <text id="can-be-adjusted-by-modifying-the-x-location-of-the-margin-guidelines." fill="#000000" fill-rule="nonzero" font-family="Helvetica" font-size="13" font-weight="normal">
                    <tspan x="776" y="1989">can be adjusted by modifying the x-location of the margin guidelines.</tspan>
                </text>
                <text id="Modifications-are-automatically-applied-proportionally-to-all" fill="#000000" fill-rule="nonzero" font-family="Helvetica" font-size="13" font-weight="normal">
                    <tspan x="776" y="2007">Modifications are automatically applied proportionally to all</tspan>
                </text>
                <text id="scales-and-weights." fill="#000000" fill-rule="nonzero" font-family="Helvetica" font-size="13" font-weight="normal">
                    <tspan x="776" y="2025">scales and weights.</tspan>
                </text>
                <g id="Group" transform="translate(1291.248126, 1914.517396)" fill="#000000" fill-rule="nonzero">
                    <path d="M0.593673634,20.347834 L2.29289363,22.056824 C3.15226363,22.925964 4.13859363,22.867374 5.06632363,21.841984 L15.7596736,10.054874 L14.7928736,9.07830404 L4.17765363,20.757994 C3.82609363,21.158384 3.49406363,21.256044 3.02531363,20.787294 L1.85343363,19.625184 C1.38468363,19.166198 1.49210363,18.824401 1.89249363,18.4630728 L13.3670736,7.66230404 L12.3905736,6.69550404 L0.798753634,17.584166 C-0.187576366,18.5021352 -0.265706366,19.478698 0.593673634,20.347834 Z M7.00968363,2.15450404 C6.58976363,2.56460404 6.56046363,3.14080404 6.79484363,3.53140404 C7.02921363,3.89280404 7.48820363,4.12710404 8.13277363,3.96110404 C9.59757363,3.61930404 11.1209736,3.56070404 12.5467736,4.49820404 L11.9608736,5.95330404 C11.6190736,6.78340404 11.7948736,7.36930404 12.3319736,7.91620404 L14.6268736,10.230654 C15.1151736,10.718934 15.5252736,10.738464 16.0916736,10.640804 L17.1561736,10.445494 L17.8202736,11.119324 L17.7811736,11.675964 C17.7420736,12.174014 17.8690736,12.554874 18.3573736,13.033384 L19.1190736,13.775574 C19.5975736,14.254084 20.2127736,14.283384 20.6815736,13.814634 L23.5916736,10.894714 C24.0604736,10.425964 24.0409736,9.83026404 23.5623736,9.35174404 L22.7909736,8.59002404 C22.3123736,8.11150404 21.9413736,7.95530404 21.4627736,7.99430404 L20.8866736,8.04310404 L20.2420736,7.40840404 L20.4862736,6.28530404 C20.6131736,5.71890404 20.4569736,5.27950404 19.8709736,4.69350404 L17.6737736,2.50600404 C14.3338736,-0.814295964 9.90027363,-0.736195964 7.00968363,2.15450404 Z M8.50387363,2.52560404 C10.9354736,0.748204036 14.2264736,1.05100404 16.4530736,3.27750404 L18.8846736,5.68960404 C19.1190736,5.92400404 19.1580736,6.10960404 19.0897736,6.45140404 L18.7674736,7.93570404 L20.2713736,9.42010404 L21.2577736,9.36151404 C21.5116736,9.35174404 21.5897736,9.37127404 21.7850736,9.56658404 L22.3612736,10.142764 L19.9198736,12.584164 L19.3436736,12.007994 C19.1483736,11.812684 19.1190736,11.734554 19.1288736,11.470884 L19.1971736,10.494324 L17.7030736,9.00994404 L16.1795736,9.26385404 C15.8573736,9.33221404 15.7108736,9.30291404 15.4666736,9.06854404 L13.4647736,7.06660404 C13.2108736,6.83220404 13.1815736,6.66620404 13.3377736,6.29510404 L14.2166736,4.20530404 C12.6541736,2.75020404 10.6229736,2.12520404 8.59167363,2.72090404 C8.43547363,2.75990404 8.37687363,2.63300404 8.50387363,2.52560404 Z" id="Shape"></path>
                </g>
                <text id="Exporting" fill="#000000" fill-rule="nonzero" font-family="Helvetica" font-size="13" font-weight="normal">
                    <tspan x="1289" y="1953">Exporting</tspan>
                </text>
                <text id="Symbols-should-be-outlined-when-exporting-to-ensure-the" fill="#000000" fill-rule="nonzero" font-family="Helvetica" font-size="13" font-weight="normal">
                    <tspan x="1289" y="1971">Symbols should be outlined when exporting to ensure the</tspan>
                </text>
                <text id="design-is-preserved-when-submitting-to-Xcode." fill="#000000" fill-rule="nonzero" font-family="Helvetica" font-size="13" font-weight="normal">
                    <tspan x="1289" y="1989">design is preserved when submitting to Xcode.</tspan>
                </text>
                <text id="template-version" fill="#000000" fill-rule="nonzero" font-family="Helvetica" font-size="13" font-weight="normal">
                    <tspan x="2952" y="1933">Template v.4.0</tspan>
                </text>
                <text id="Requires-Xcode-14-or-greater" fill="#000000" fill-rule="nonzero" font-family="Helvetica" font-size="13" font-weight="normal">
                    <tspan x="2865" y="1951">Requires Xcode 14 or greater</tspan>
                </text>
                <text id="descriptive-name" fill="#000000" fill-rule="nonzero" font-family="Helvetica" font-size="13" font-weight="normal">
                    <tspan x="2883" y="1969">Generated from goforward</tspan>
                </text>
                <text id="Typeset-at-100-points" fill="#000000" fill-rule="nonzero" font-family="Helvetica" font-size="13" font-weight="normal">
                    <tspan x="2912" y="1987">Typeset at 100 points</tspan>
                </text>
                <text id="Small" fill="#000000" fill-rule="nonzero" font-family="Helvetica" font-size="13" font-weight="normal">
                    <tspan x="263" y="726">Small</tspan>
                </text>
                <text id="Medium" fill="#000000" fill-rule="nonzero" font-family="Helvetica" font-size="13" font-weight="normal">
                    <tspan x="263" y="1156">Medium</tspan>
                </text>
                <text id="Large" fill="#000000" fill-rule="nonzero" font-family="Helvetica" font-size="13" font-weight="normal">
                    <tspan x="263" y="1586">Large</tspan>
                </text>
            </g>
            <g id="Guides" transform="translate(263.000000, 625.041000)">
                <g id="H-reference" transform="translate(76.993654, 0.500000)" fill="#27AAE1" fill-rule="nonzero">
                    <path d="M0,70.459 L2.644096,70.459 L28.334446,3.3267 L29.036646,3.3267 L29.036646,0 L27.128946,0 L0,70.459 Z M10.694846,45.9791 L45.987846,45.9791 L45.237846,43.7305 L11.444846,43.7305 L10.694846,45.9791 Z M54.125946,70.459 L56.770046,70.459 L29.644546,0 L28.438946,0 L28.438946,3.3267 L54.125946,70.459 Z" id="Shape"></path>
                </g>
                <line x1="0" y1="70.959" x2="2773" y2="70.959" id="Baseline-S" stroke="#27AAE1" stroke-width="0.5"></line>
                <line x1="0" y1="0.5" x2="2773" y2="0.5" id="Capline-S" stroke="#27AAE1" stroke-width="0.5"></line>
                <g id="H-reference" transform="translate(76.993654, 430.500000)" fill="#27AAE1" fill-rule="nonzero">
                    <path d="M0,70.459 L2.644096,70.459 L28.334446,3.3267 L29.036646,3.3267 L29.036646,0 L27.128946,0 L0,70.459 Z M10.694846,45.9791 L45.987846,45.9791 L45.237846,43.7305 L11.444846,43.7305 L10.694846,45.9791 Z M54.125946,70.459 L56.770046,70.459 L29.644546,0 L28.438946,0 L28.438946,3.3267 L54.125946,70.459 Z" id="Shape"></path>
                </g>
                <line x1="0" y1="500.959" x2="2773" y2="500.959" id="Baseline-M" stroke="#27AAE1" stroke-width="0.5"></line>
                <line x1="0" y1="430.499" x2="2773" y2="430.499" id="Capline-M" stroke="#27AAE1" stroke-width="0.5"></line>
                <g id="H-reference" transform="translate(76.993654, 860.500000)" fill="#27AAE1" fill-rule="nonzero">
                    <path d="M0,70.459 L2.644096,70.459 L28.334446,3.3267 L29.036646,3.3267 L29.036646,0 L27.128946,0 L0,70.459 Z M10.694846,45.9791 L45.987846,45.9791 L45.237846,43.7305 L11.444846,43.7305 L10.694846,45.9791 Z M54.125946,70.459 L56.770046,70.459 L29.644546,0 L28.438946,0 L28.438946,3.3267 L54.125946,70.459 Z" id="Shape"></path>
                </g>
                <line x1="0" y1="930.959" x2="2773" y2="930.959" id="Baseline-L" stroke="#27AAE1" stroke-width="0.5"></line>
                <line x1="0" y1="860.499" x2="2773" y2="860.499" id="Capline-L" stroke="#27AAE1" stroke-width="0.5"></line>
                <line x1="1128.32" y1="405.749" x2="1128.32" y2="525.079" id="left-margin-Regular-M" stroke="#00AEEF" stroke-width="0.5"></line>
                <line x1="1245.37" y1="405.749" x2="1245.37" y2="525.079" id="right-margin-Regular-M" stroke="#00AEEF" stroke-width="0.5"></line>
            </g>
            <g id="Symbols" transform="translate(498.889800, 609.658211)" fill="#000000" fill-rule="nonzero">
                <g id="Black-L" transform="translate(2366.559000, 828.893101)">
                    <path d="M-7.10542736e-15,82.1813882 C-7.10542736e-15,119.546468 30.5927,150.118388 67.937,150.118388 C105.3012,150.118388 135.8952,119.546468 135.8952,82.1813882 C135.8952,64.4593882 127.5342,44.2614882 115.1192,33.7021882 C109.7392,28.9223882 103.7202,28.9393882 99.9272,33.0482882 C95.6472,37.6269882 97.1272,43.6749882 101.2752,48.2158882 C110.3522,57.3841882 115.7052,68.7617882 115.7262,82.1813882 C115.7472,108.632988 94.3882,129.970788 67.937,129.970788 C41.5062,129.970788 20.188,108.632988 20.188,82.1813882 C20.188,61.1701882 33.5684,43.4939882 52.3491,37.0784882 L52.3491,45.8214882 C52.3491,51.7549882 57.5658,53.6185882 62.8938,49.6989882 L87.6746,31.5496882 C91.8982,28.4593882 91.8022,23.3582882 87.6746,20.3067882 L62.9146,2.09768817 C57.6242,-1.80531183 52.3491,-0.116311825 52.3491,5.95468817 L52.3491,16.0886882 C22.3964,23.1347882 -7.10542736e-15,50.1774882 -7.10542736e-15,82.1813882 Z" id="Path"></path>
                </g>
                <g id="Heavy-L" transform="translate(2070.789000, 830.326371)">
                    <path d="M7.10542736e-15,80.7569175 C7.10542736e-15,117.565577 30.216,147.751417 66.9944,147.751417 C103.7972,147.751417 134.0192,117.565577 134.0192,80.7569175 C134.0192,62.1841175 125.0612,42.2364175 111.7012,31.4258175 C106.9822,27.3128175 101.6182,27.4730175 98.3822,31.1782175 C94.7652,35.2516175 96.0812,40.5381175 99.8062,44.4211175 C110.0082,53.7124175 116.2172,66.1891175 116.2472,80.7569175 C116.2772,108.034127 94.2712,130.009517 66.9944,130.009517 C39.7474,130.009517 17.7966,108.034127 17.7966,80.7569175 C17.7966,58.6141175 32.221,40.0533175 52.2657,33.8799175 L52.2657,42.7821175 C52.2657,48.3134175 56.9309,50.0127175 61.7807,46.4669175 L85.4306,29.3025175 C89.3082,26.4902175 89.2492,21.9086175 85.4306,19.1163175 L61.8109,1.90141749 C56.9755,-1.65958251 52.2657,-0.0945825121 52.2657,5.55641749 L52.2657,15.4374175 C22.435,22.1687175 7.10542736e-15,49.0079175 7.10542736e-15,80.7569175 Z" id="Path"></path>
                </g>
                <g id="Bold-L" transform="translate(1775.259000, 832.078251)">
                    <path d="M7.10542736e-15,79.0203383 C7.10542736e-15,115.144897 29.725,144.831938 65.8116,144.831938 C101.9232,144.831938 131.6612,115.144897 131.6612,79.0203383 C131.6612,59.4394383 121.9652,39.7395383 107.4602,28.6960383 C103.5552,25.3903383 99.0282,25.6975383 96.4612,28.8734383 C93.6372,32.3095383 94.7452,36.6583383 97.9262,39.7491383 C109.5482,49.1941383 116.8392,63.0234383 116.8772,79.0203383 C116.9152,107.312008 94.1032,130.086238 65.8116,130.086238 C37.5579,130.086238 14.8084,107.312008 14.8084,79.0203383 C14.8084,55.4938383 30.5237,35.8417383 52.1135,29.9605383 L52.1135,39.2040383 C52.1135,44.1837383 56.0949,45.6831383 60.3456,42.5985383 L82.6714,26.5812383 C86.1113,24.1146383 86.0909,20.1784383 82.6714,17.7163383 L60.3836,1.65653833 C56.1241,-1.47446167 52.1135,-0.0634616725 52.1135,5.01353833 L52.1135,14.6833383 C22.4513,21.0304383 7.10542736e-15,47.5937383 7.10542736e-15,79.0203383 Z" id="Path"></path>
                </g>
                <g id="Semibold-L" transform="translate(1479.359000, 833.285794)">
                    <path d="M7.10542736e-15,77.823295 C7.10542736e-15,113.476288 29.3865,142.819395 64.9961,142.819395 C100.6302,142.819395 130.0352,113.476288 130.0352,77.823295 C130.0352,57.547495 119.8312,38.018395 104.5362,26.814295 C101.1932,24.065295 97.2422,24.473695 95.1372,27.284795 C92.8592,30.281395 93.8252,33.983795 96.6292,36.528595 C109.2312,46.079395 117.2692,60.841195 117.3122,77.823295 C117.3552,106.814385 93.9872,130.139395 64.9961,130.139395 C36.0484,130.139395 12.7483,106.814385 12.7483,77.823295 C12.7483,53.342895 29.3537,32.938495 52.0086,27.258795 L52.0086,36.737495 C52.0086,41.336995 55.5186,42.698595 59.3562,39.931795 L80.7693,24.705395 C83.9074,22.477195 83.9136,18.985895 80.7693,16.751295 L59.3996,1.48799498 C55.5371,-1.34700502 52.0086,-0.0410050204 52.0086,4.63899498 L52.0086,14.163795 C22.4626,20.245995 7.10542736e-15,46.618995 7.10542736e-15,77.823295 Z" id="Path"></path>
                </g>
                <g id="Medium-L" transform="translate(1183.269000, 834.201037)">
                    <path d="M-7.10542736e-15,76.9159521 C-7.10542736e-15,112.211445 29.1298,141.293852 64.3778,141.293852 C99.6512,141.293852 128.8032,112.211445 128.8032,76.9159521 C128.8032,56.1132521 118.2132,36.7137521 102.3192,25.3878521 C99.4012,23.0608521 95.8892,23.5461521 94.1332,26.0805521 C92.2692,28.7439521 93.1262,31.9562521 95.6462,34.0869521 C108.9912,43.7180521 117.5942,59.1869521 117.6422,76.9159521 C117.6892,106.437432 93.8992,130.179952 64.3778,130.179952 C34.9038,130.179952 11.1863,106.437432 11.1863,76.9159521 C11.1863,51.7123521 28.4664,30.7374521 51.9291,25.2105521 L51.9291,34.8677521 C51.9291,39.1788521 55.0816,40.4359521 58.606,37.9101521 L79.327,23.2834521 C82.2363,21.2359521 82.2627,18.0820521 79.327,16.0200521 L58.6535,1.36075215 C55.0921,-1.25024785 51.9291,-0.0242478503 51.9291,4.35575215 L51.9291,13.7702521 C22.4711,19.6514521 -7.10542736e-15,45.8803521 -7.10542736e-15,76.9159521 Z" id="Path"></path>
                </g>
                <g id="Regular-L" transform="translate(887.359000, 835.394833)">
                    <path d="M-7.10542736e-15,75.7325561 C-7.10542736e-15,110.561649 28.795,139.303956 63.5713,139.303956 C98.3732,139.303956 127.1952,110.561649 127.1952,75.7325561 C127.1952,54.2425561 116.1022,35.0120561 99.4272,23.5272561 C97.0652,21.7507561 94.1232,22.3362561 92.8242,24.5097561 C91.4992,26.7385561 92.2162,29.3116561 94.3642,30.9021561 C108.6772,40.6380561 118.0192,57.0292561 118.0722,75.7325561 C118.1242,105.945746 93.7842,130.232956 63.5713,130.232956 C33.4109,130.232956 9.1488,105.945746 9.1488,75.7325561 C9.1488,49.5854561 27.3092,27.8666561 51.8253,22.5388561 L51.8253,32.4287561 C51.8253,36.3638561 54.5116,37.4846561 57.6275,35.2732561 L77.4457,21.4287561 C80.0566,19.6169561 80.1094,16.9030561 77.4457,15.0661561 L57.6803,1.19395606 C54.5116,-1.12304394 51.8253,-0.00204393692 51.8253,3.98595606 L51.8253,13.2568561 C22.4823,18.8760561 -7.10542736e-15,44.9168561 -7.10542736e-15,75.7325561 Z" id="Path"></path>
                </g>
                <g id="Light-L" transform="translate(591.569000, 836.457982)">
                    <path d="M-7.10542736e-15,74.7076071 C-7.10542736e-15,109.09771 28.2988,137.362807 62.6553,137.362807 C96.9982,137.362807 125.3442,109.09771 125.3442,74.7076071 C125.3442,52.8168071 113.7552,33.3572071 96.4502,22.2160071 C94.6222,20.8785071 92.4242,21.3686071 91.4492,22.9886071 C90.4882,24.7021071 91.0322,26.6644071 92.6652,27.8542071 C108.1432,37.7046071 118.3812,54.9737071 118.4152,74.7076071 C118.4492,105.569667 93.5172,130.467607 62.6553,130.467607 C31.8269,130.467607 6.9158,105.569667 6.9158,74.7076071 C6.9158,47.7208071 25.9542,25.2766071 51.4055,20.1016071 L51.4055,31.1557071 C51.4055,34.3655071 53.6145,35.3718071 56.2725,33.4658071 L75.6708,19.9457071 C77.9191,18.3820071 77.9528,16.1262071 75.6708,14.5755071 L56.3062,1.00880707 C53.6145,-0.964192928 51.4055,0.0418070721 51.4055,3.28480707 L51.4055,13.0716071 C22.2914,18.4618071 -7.10542736e-15,44.1590071 -7.10542736e-15,74.7076071 Z" id="Path"></path>
                </g>
                <g id="Thin-L" transform="translate(296.085000, 837.863484)">
                    <path d="M0,73.3526054 C0,107.162125 27.6425,134.796205 61.4436,134.796205 C95.1812,134.796205 122.8962,107.162125 122.8962,73.3526054 C122.8962,50.9317054 110.6502,31.1692054 92.5122,20.4824054 C91.3912,19.7254054 90.1782,20.0893054 89.6322,20.9773054 C89.1502,22.0093054 89.4672,23.1638054 90.4192,23.8235054 C107.4362,33.8254054 118.8612,52.2556054 118.8692,73.3526054 C118.8782,105.072865 93.1642,130.778505 61.4436,130.778505 C29.7318,130.778505 3.9626,105.072865 3.9626,73.3526054 C3.9626,45.2551054 24.162,21.8518054 50.8501,16.8787054 L50.8501,29.4725054 C50.8501,31.7232054 52.4282,32.5780054 54.4803,31.0759054 L73.3233,17.9849054 C75.092,16.7493054 75.1004,15.0993054 73.3233,13.9273054 L54.4887,0.764305447 C52.4282,-0.754694553 50.8501,0.100305447 50.8501,2.35930545 L50.8501,12.8273054 C22.039,17.9145054 0,43.1574054 0,73.3526054 Z" id="Path"></path>
                </g>
                <g id="Ultralight-L" transform="translate(0.000000, 838.583396)">
                    <path d="M0,72.6584933 C0,106.170713 27.3064,133.481593 60.8231,133.481593 C94.2502,133.481593 121.6412,106.170713 121.6412,72.6584933 C121.6412,49.9661933 109.0602,30.0484933 90.4952,19.5943933 C89.7362,19.1347933 89.0272,19.4339933 88.7014,19.9470933 C88.4651,20.6299933 88.6659,21.3707933 89.2682,21.7589933 C107.0742,31.8384933 119.1072,50.8633933 119.1022,72.6584933 C119.0982,104.818393 92.9832,130.937793 60.8231,130.937793 C28.6587,130.937793 2.4499,104.818393 2.4499,72.6584933 C2.4499,43.9921933 23.2441,20.0975933 50.5657,15.2278933 L50.5657,28.6103933 C50.5657,30.3697933 51.8205,31.1469933 53.5624,29.8517933 L72.1209,16.9804933 C73.644,15.9130933 73.6395,14.5732933 72.1209,13.5952933 L53.5579,0.639393287 C51.8205,-0.647606713 50.5657,0.130393287 50.5657,1.88539329 L50.5657,12.7020933 C21.9097,17.6341933 0,42.6443933 0,72.6584933 Z" id="Path"></path>
                </g>
                <g id="Black-M" transform="translate(2381.192860, 416.326231)">
                    <path d="M1.77635684e-15,64.7543582 C1.77635684e-15,94.1214082 23.95804,118.073958 53.31954,118.073958 C82.68694,118.073958 106.64434,94.1214082 106.64434,64.7543582 C106.64434,51.7013582 100.61334,35.8070582 91.72234,27.8888582 C87.05774,23.6722582 81.93304,23.5492582 78.55914,27.0046582 C74.72274,30.9162582 75.98684,36.1737582 79.49354,40.2028582 C85.71814,47.2157582 89.25174,55.2047582 89.25724,64.7543582 C89.26274,84.6259582 73.19114,100.692046 53.31954,100.692046 C33.45354,100.692046 17.39314,84.6259582 17.39314,64.7543582 C17.39314,49.3348582 26.98124,36.3023582 40.57174,31.1446582 L40.57174,37.9392582 C40.57174,42.7834582 45.02274,44.3530582 49.49944,41.0363582 L69.61334,26.1729582 C73.13344,23.5734582 73.02474,19.2369582 69.61334,16.6888582 L49.50494,1.76865823 C45.07984,-1.50144177 40.57174,-0.103441766 40.57174,4.86025823 L40.57174,12.9985582 C17.29244,18.6972582 1.77635684e-15,39.7768582 1.77635684e-15,64.7543582 Z" id="Path"></path>
                </g>
                <g id="Heavy-M" transform="translate(2085.312860, 417.629120)">
                    <path d="M1.77635684e-15,63.4565688 C1.77635684e-15,92.3201588 23.63554,115.939269 52.48264,115.939269 C81.34404,115.939269 104.98134,92.3201588 104.98134,63.4565688 C104.98134,49.6087688 98.41234,33.9802688 88.65544,25.7846688 C84.58794,22.1793688 80.03464,22.2052688 77.17584,25.3170688 C73.95394,28.7822688 75.07374,33.3516688 78.21494,36.7745688 C85.43094,43.8971688 89.71804,52.8795688 89.73444,63.4565688 C89.75094,84.0753688 73.10144,100.708379 52.48264,100.708379 C31.88034,100.708379 15.26144,84.0753688 15.26144,63.4565688 C15.26144,47.0083688 25.78904,33.1779688 40.52904,28.2427688 L40.52904,35.0855688 C40.52904,39.6035688 44.48484,41.0230688 48.53634,38.0436688 L67.58334,24.1130688 C70.79884,21.7624688 70.72804,17.8915688 67.58334,15.5704688 L48.55284,1.5939688 C44.52844,-1.3743312 40.52904,-0.0860311971 40.52904,4.5357688 L40.52904,12.3791688 C17.34774,17.7912688 1.77635684e-15,38.7034688 1.77635684e-15,63.4565688 Z" id="Path"></path>
                </g>
                <g id="Bold-M" transform="translate(1789.522860, 419.086373)">
                    <path d="M1.77635684e-15,62.0050157 C1.77635684e-15,90.3054157 23.27474,113.551516 51.54654,113.551516 C79.84174,113.551516 103.12134,90.3054157 103.12134,62.0050157 C103.12134,47.2681157 95.95034,31.9369157 85.22464,23.4310157 C81.82514,20.5095157 77.91094,20.7020157 75.62834,23.4294157 C73.09384,26.3954157 74.05224,30.1948157 76.78464,32.9397157 C85.10974,40.1850157 90.23974,50.2788157 90.26834,62.0050157 C90.29694,83.4596157 73.00114,100.726856 51.54654,100.726856 C30.12054,100.726856 12.87684,83.4596157 12.87684,62.0050157 C12.87684,44.4060157 24.45554,29.6831157 40.48114,24.9969157 L40.48114,31.8935157 C40.48114,36.0466157 43.88314,37.2982157 47.45904,34.6962157 L65.31264,21.8091157 C68.18734,19.7368157 68.15884,16.3868157 65.31264,14.3196157 L47.48764,1.39881566 C43.91174,-1.23188434 40.48114,-0.0659843385 40.48114,4.17291566 L40.48114,11.6866157 C17.40964,16.7779157 1.77635684e-15,37.5030157 1.77635684e-15,62.0050157 Z" id="Path"></path>
                </g>
                <g id="Semibold-M" transform="translate(1493.452860, 420.090822)">
                    <path d="M1.77635684e-15,61.0045669 C1.77635684e-15,88.9166369 23.02604,111.905667 50.90114,111.905667 C78.80614,111.905667 101.83934,88.9166369 101.83934,61.0045669 C101.83934,45.6546669 94.25234,30.5283669 82.85954,21.8086669 C79.92054,19.3585669 76.44694,19.6658669 74.56154,22.1281669 C72.50094,24.7499669 73.34804,28.0187669 75.79864,30.2961669 C84.88824,37.6259669 90.59934,48.4859669 90.63634,61.0045669 C90.67334,83.0353669 72.93194,100.739777 50.90114,100.739777 C28.90734,100.739777 11.23284,83.0353669 11.23284,61.0045669 C11.23284,42.6120669 23.53614,27.2738669 40.44814,22.7593669 L40.44814,29.6931669 C40.44814,33.5946669 43.46834,34.7304669 46.71634,32.3886669 L63.74714,20.2208669 C66.38704,18.3405669 66.38774,15.3495669 63.74714,13.4574669 L46.75334,1.26446694 C43.48644,-1.13333306 40.44814,-0.0519330618 40.44814,3.92286694 L40.44814,11.2092669 C17.45224,16.0795669 1.77635684e-15,36.6755669 1.77635684e-15,61.0045669 Z" id="Path"></path>
                </g>
                <g id="Medium-M" transform="translate(1197.232860, 420.852252)">
                    <path d="M1.77635684e-15,60.2461365 C1.77635684e-15,87.8637965 22.83744,110.657837 50.41174,110.657837 C78.02084,110.657837 100.86734,87.8637965 100.86734,60.2461365 C100.86734,44.4315365 92.96534,29.4606365 81.06624,20.5786365 C78.47634,18.4859365 75.33684,18.8804365 73.75264,21.1417365 C72.05144,23.5026365 72.81414,26.3689365 75.05104,28.2919365 C84.72024,35.6858365 90.87194,47.1267365 90.91544,60.2461365 C90.95884,82.7138365 72.87944,100.749747 50.41174,100.749747 C27.98744,100.749747 9.98634,82.7138365 9.98634,60.2461365 C9.98634,41.2520365 22.83904,25.4473365 40.42314,21.0629365 L40.42314,28.0249365 C40.42314,31.7357365 43.15384,32.7837365 46.15324,30.6392365 L62.56014,19.0168365 C65.02194,17.2820365 65.04474,14.5633365 62.56014,12.8039365 L46.19664,1.16273654 C43.16404,-1.05836346 40.42314,-0.0411634561 40.42314,3.73353654 L40.42314,10.8475365 C17.48454,15.5501365 1.77635684e-15,36.0484365 1.77635684e-15,60.2461365 Z" id="Path"></path>
                </g>
                <g id="Regular-M" transform="translate(901.152860, 421.845051)">
                    <path d="M45.47044,1.03043806 L61.01194,11.9518381 C63.29304,13.5381381 63.24134,15.9016381 61.01194,17.4467381 L45.41864,28.3576381 C42.74354,30.2448381 40.39054,29.3112381 40.39054,25.8493381 L40.39054,18.8506381 C21.92974,23.0652381 8.36044,39.4785381 8.36044,59.2572381 C8.36044,82.2948381 26.78754,100.763138 49.77344,100.763138 C72.81104,100.763138 91.33134,82.2948381 91.27934,59.2572381 C91.22764,45.3542381 84.50124,33.1556381 74.07584,25.6780381 C72.11774,24.2174381 71.46504,21.8759381 72.69754,19.8555381 C73.88884,17.8562381 76.59264,17.3482381 78.72704,18.9747381 C91.28734,28.0682381 99.59834,42.8364381 99.59834,59.2572381 C99.59834,86.4908881 76.99654,109.030638 49.77344,109.030638 C22.59144,109.030638 0,86.4908881 0,59.2572381 C0,35.2307381 17.52674,14.8600381 40.39054,10.3761381 L40.39054,3.48693806 C40.39054,-0.0267619398 42.74354,-0.96036194 45.47044,1.03043806 Z M45.8240863,31.4967381 C47.2312527,31.4967381 48.3295033,32.6346498 48.3295033,34.0139432 L48.3295033,85.9794976 C48.3295033,87.3588051 47.2312527,88.4967381 45.8240863,88.4967381 C44.4512907,88.4967381 43.3873407,87.3588051 43.3873407,85.9794976 L43.3873407,34.0139432 C43.3873407,32.6346498 44.4512907,31.4967381 45.8240863,31.4967381 Z M64.2884719,37.1519045 C65.6612675,37.1519045 66.759518,38.2898162 66.759518,39.6691096 L66.759518,80.3243241 C66.759518,81.7036316 65.6612675,82.8070805 64.2884719,82.8070805 C62.8470049,82.8070805 61.8173555,81.7036316 61.8173555,80.3243241 L61.8173555,39.6691096 C61.8173555,38.2898162 62.8470049,37.1519045 64.2884719,37.1519045 Z M36.6262643,42.3587706 C38.0333605,42.3587706 39.1316111,43.5312158 39.1316111,44.9105092 L39.1316111,75.0829316 C39.1316111,76.462225 38.0333605,77.6002073 36.6262643,77.6002073 C35.2190979,77.6002073 34.1552182,76.462225 34.1552182,75.0829316 L34.1552182,44.9105092 C34.1552182,43.5312158 35.2190979,42.3587706 36.6262643,42.3587706 Z M55.0562791,45.8760358 C56.4633753,45.8760358 57.5273252,47.0139475 57.5273252,48.3932409 L57.5273252,71.6001999 C57.5273252,72.9794933 56.4633753,74.0829421 55.0562791,74.0829421 C53.6491126,74.0829421 52.5852329,72.9794933 52.5852329,71.6001999 L52.5852329,48.3932409 C52.5852329,47.0139475 53.6491126,45.8760358 55.0562791,45.8760358 Z M73.4862938,51.6346616 C74.89339,51.6346616 75.95734,52.7725733 75.95734,54.1518667 L75.95734,65.8415741 C75.95734,67.2208675 74.89339,68.3243163 73.4862938,68.3243163 C72.0791274,68.3243163 71.0152477,67.2208675 71.0152477,65.8415741 L71.0152477,54.1518667 C71.0152477,52.7725733 72.0791274,51.6346616 73.4862938,51.6346616 Z M27.3940715,53.8415592 C28.8355386,53.8415592 29.8994885,54.979471 29.8994885,56.3587644 L29.8994885,63.6346764 C29.8994885,65.0139698 28.8355386,66.1174187 27.3940715,66.1174187 C26.0212759,66.1174187 24.95734,65.0139698 24.95734,63.6346764 L24.95734,56.3587644 C24.95734,54.979471 26.0212759,53.8415592 27.3940715,53.8415592 Z" id="Shape"></path>
                </g>
                <g id="Light-M" transform="translate(605.272860, 422.797994)">
                    <path d="M1.77635684e-15,58.3384952 C1.77635684e-15,85.1786152 22.14664,107.290595 48.95214,107.290595 C75.76454,107.290595 97.93934,85.1786152 97.93934,58.3384952 C97.93934,41.5583952 89.18234,26.5847952 76.05774,17.7992952 C74.40244,16.5663952 72.36604,16.9887952 71.46554,18.4918952 C70.55814,20.0502952 71.05684,21.8441952 72.55294,22.9455952 C84.02214,30.5257952 91.55234,43.5114952 91.58734,58.3384952 C91.62234,81.9578952 72.57154,100.973735 48.95214,100.973735 C25.36734,100.973735 6.35844,81.9578952 6.35844,58.3384952 C6.35844,37.8068952 20.71494,20.7433952 40.01404,16.6656952 L40.01404,24.7081952 C40.01404,27.5198952 41.93934,28.3507952 44.20374,26.7372952 L59.42064,16.1173952 C61.32494,14.7946952 61.35954,12.8417952 59.42064,11.5121952 L44.23844,0.864595192 C41.93934,-0.818204808 40.01404,0.012695192 40.01404,2.85909519 L40.01404,10.2102952 C17.35564,14.4888952 1.77635684e-15,34.5514952 1.77635684e-15,58.3384952 Z" id="Path"></path>
                </g>
                <g id="Thin-M" transform="translate(309.660860, 424.058348)">
                    <path d="M1.77635684e-15,57.1233414 C1.77635684e-15,83.4430214 21.55824,104.989241 47.86584,104.989241 C74.13514,104.989241 95.74334,83.4430214 95.74334,57.1233414 C95.74334,39.8680414 86.39874,24.6229414 72.52744,16.2447414 C71.50574,15.5323414 70.35184,15.8416414 69.83614,16.6884414 C69.35874,17.6358414 69.65374,18.7055414 70.53884,19.3316414 C83.38844,27.0476414 91.98234,41.0743414 91.99434,57.1233414 C92.00634,81.5122414 72.25464,101.252261 47.86584,101.252261 C23.48904,101.252261 3.71064,81.5122414 3.71064,57.1233414 C3.71064,35.5960414 19.10814,17.6726414 39.51624,13.7759414 L39.51624,23.1988414 C39.51624,25.1506414 40.87574,25.8457414 42.59704,24.5944414 L57.31594,14.3591414 C58.79024,13.3307414 58.80224,11.9209414 57.31594,10.9308414 L42.60904,0.645241385 C40.87574,-0.630158615 39.51624,0.0649413853 39.51624,2.02874139 L39.51624,9.99094139 C17.12934,13.9979414 1.77635684e-15,33.6532414 1.77635684e-15,57.1233414 Z" id="Path"></path>
                </g>
                <g id="Ultralight-M" transform="translate(13.511860, 424.703842)">
                    <path d="M1.77635684e-15,56.5010471 C1.77635684e-15,82.5541071 21.25684,103.810547 47.30944,103.810547 C73.30064,103.810547 94.61934,82.5541071 94.61934,56.5010471 C94.61934,39.0022471 84.97304,23.6180471 70.71914,15.4485471 C70.02204,15.0027471 69.32024,15.2541471 69.00154,15.7647471 C68.74434,16.3991471 68.93504,17.0979471 69.50714,17.4806471 C83.06394,25.2662471 92.20334,39.8261471 92.20334,56.5010471 C92.20334,81.2840471 72.09244,101.394977 47.30944,101.394977 C22.52694,101.394977 2.35454,81.2840471 2.35454,56.5010471 C2.35454,34.4637471 18.28514,16.0998471 39.26124,12.2958471 L39.26124,22.4258471 C39.26124,23.9371471 40.33094,24.5627471 41.77404,23.4968471 L56.23794,13.4586471 C57.49204,12.5808471 57.49244,11.4493471 56.23794,10.6330471 L41.77444,0.532947051 C40.33094,-0.533852949 39.26124,0.0917470512 39.26124,1.60344705 L39.26124,9.87864705 C17.01334,13.7465471 1.77635684e-15,33.1932471 1.77635684e-15,56.5010471 Z" id="Path"></path>
                </g>
                <g id="Black-S" transform="translate(2392.516140, -0.000000)">
                    <path d="M-8.8817842e-16,51.087889 C-8.8817842e-16,74.232389 18.84766,93.080069 41.99216,93.080069 C65.13676,93.080069 83.98436,74.232389 83.98436,51.087889 C83.98436,41.078089 79.39456,28.529289 72.65626,22.425789 C68.84766,18.958989 64.69726,18.812489 61.91406,21.595689 C58.74026,24.769489 59.76566,29.066389 62.59766,32.386689 C67.23636,37.855489 69.82426,43.861289 69.82426,51.087889 C69.82426,66.468789 57.37306,78.919909 41.99216,78.919909 C26.61136,78.919909 14.16016,66.468789 14.16016,51.087889 C14.16016,39.271489 21.43556,29.261689 31.78706,25.160189 L31.78706,30.531289 C31.78706,34.388689 35.40036,35.658189 39.01366,32.972689 L55.07816,21.058589 C57.91016,18.958989 57.81246,15.443389 55.07816,13.392589 L39.01366,1.42968896 C35.44926,-1.20701104 31.78706,-0.0840110384 31.78706,3.87108896 L31.78706,10.365189 C13.52536,14.906289 -8.8817842e-16,31.458989 -8.8817842e-16,51.087889 Z" id="Path"></path>
                </g>
                <g id="Heavy-S" transform="translate(2096.416140, 0.992775)">
                    <path d="M-8.8817842e-16,50.0951135 C-8.8817842e-16,72.8593135 18.62866,91.4764935 41.38136,91.4764935 C64.14566,91.4764935 82.77426,72.8593135 82.77426,50.0951135 C82.77426,39.4515135 77.78106,27.1562135 70.37436,20.7761135 C67.01526,17.7818135 63.26826,17.7736135 60.88836,20.3263135 C58.19856,23.1775135 59.12026,26.9557135 61.69876,29.8035135 C67.05196,35.3530135 70.18146,42.1079135 70.19296,50.0951135 C70.20456,66.0407135 57.32696,78.9067135 41.38136,78.9067135 C25.44736,78.9067135 12.59286,66.0407135 12.59286,50.0951135 C12.59286,37.4950135 20.57116,26.8860135 31.79866,22.9573135 L31.79866,28.2362135 C31.79866,31.8977135 35.04316,33.0520135 38.34526,30.6200135 L53.54536,19.4665135 C56.15846,17.5513135 56.09536,14.3814135 53.54536,12.4920135 L38.35676,1.30121352 C35.08046,-1.11648648 31.79866,-0.0741864825 31.79866,3.67351352 L31.79866,9.85651352 C13.59456,14.1785135 -8.8817842e-16,30.6275135 -8.8817842e-16,50.0951135 Z" id="Path"></path>
                </g>
                <g id="Bold-S" transform="translate(1800.376140, 2.102833)">
                    <path d="M-8.8817842e-16,48.9850558 C-8.8817842e-16,71.3239558 18.38376,89.6832958 40.69826,89.6832958 C63.03706,89.6832958 81.42086,71.3239558 81.42086,48.9850558 C81.42086,37.6325558 75.97656,25.6207558 67.82226,18.9313558 C64.96586,16.4655558 61.66996,16.6119558 59.74116,18.9069558 C57.59276,21.3971558 58.39846,24.5953558 60.69336,26.9147558 C66.84566,32.5543558 70.58106,40.1471558 70.60546,48.9850558 C70.62986,65.5621558 57.27536,78.8922758 40.69826,78.8922758 C24.14546,78.8922758 10.83986,65.5621558 10.83986,48.9850558 C10.83986,35.5084558 19.60446,24.2291558 31.81156,20.4938558 L31.81156,25.6696558 C31.81156,29.1119558 34.64356,30.1373558 37.59766,27.9889558 L51.83106,17.6862558 C54.19926,15.9772558 54.17476,13.1940558 51.83106,11.4850558 L37.62206,1.15785582 C34.66796,-1.01494418 31.81156,-0.0628441768 31.81156,3.45285582 L31.81156,9.28775582 C13.67186,13.3649558 -8.8817842e-16,29.6979558 -8.8817842e-16,48.9850558 Z" id="Path"></path>
                </g>
                <g id="Semibold-S" transform="translate(1504.136140, 2.867913)">
                    <path d="M-8.8817842e-16,48.2199755 C-8.8817842e-16,70.2655755 18.21496,88.4472155 40.22726,88.4472155 C62.27286,88.4472155 80.48776,70.2655755 80.48776,48.2199755 C80.48776,36.3786755 74.73246,24.5624755 66.06266,17.6596755 C63.55286,15.5582755 60.56796,15.8113755 58.95026,17.9285755 C57.17506,20.1699755 57.90076,22.9682755 60.00016,24.9232755 C66.70356,30.6251755 70.85656,38.7955755 70.88986,48.2199755 C70.92316,65.2325755 57.23986,78.8825655 40.22726,78.8825655 C23.24796,78.8825655 9.63126,65.2325755 9.63126,48.2199755 C9.63126,34.1390755 18.93796,22.3976755 31.82036,18.7956755 L31.82036,23.9003755 C31.82036,27.1916755 34.36806,28.1281755 37.08226,26.1752755 L50.64916,16.4590755 C52.84846,14.8922755 52.85066,12.3756755 50.64916,10.7910755 L37.11556,1.05927548 C34.38356,-0.944724525 31.82036,-0.0547245246 31.82036,3.30097548 L31.82036,8.89597548 C13.72516,12.8042755 -8.8817842e-16,29.0572755 -8.8817842e-16,48.2199755 Z" id="Path"></path>
                </g>
                <g id="Medium-S" transform="translate(1207.776140, 3.447871)">
                    <path d="M-8.8817842e-16,47.6400178 C-8.8817842e-16,69.4632178 18.08696,87.5101278 39.87016,87.5101278 C61.69336,87.5101278 79.78026,69.4632178 79.78026,47.6400178 C79.78026,35.4281178 73.78906,23.7601178 64.72856,16.6957178 C62.48146,14.8705178 59.73246,15.2044178 58.35056,17.1869178 C56.85836,19.2396178 57.52346,21.7347178 59.47456,23.4134178 C66.59566,29.1625178 71.06546,37.7709178 71.10546,47.6400178 C71.14546,64.9828178 57.21286,78.8753678 39.87016,78.8753678 C22.56736,78.8753678 8.71486,64.9828178 8.71486,47.6400178 C8.71486,33.1009178 18.43266,21.0091178 31.82716,17.5082178 L31.82716,22.5589178 C31.82716,25.7357178 34.15916,26.6048178 36.69136,24.8001178 L49.75296,15.5287178 C51.82426,14.0697178 51.84666,11.7552178 49.75296,10.2650178 L36.73146,0.984717793 C34.16796,-0.891282207 31.82716,-0.0484822074 31.82716,3.18591779 L31.82716,8.59901779 C13.76566,12.3793178 -8.8817842e-16,28.5716178 -8.8817842e-16,47.6400178 Z" id="Path"></path>
                </g>
                <g id="Regular-S" transform="translate(911.526140, 4.204110)">
                    <path d="M-8.8817842e-16,46.8837794 C-8.8817842e-16,68.4169794 17.91996,86.2880694 39.40426,86.2880694 C60.93746,86.2880694 78.85746,68.4169794 78.85746,46.8837794 C78.85746,34.1884794 72.55856,22.7138794 62.98826,15.4384794 C61.08396,13.9735794 58.64256,14.4130794 57.56836,16.2196794 C56.44526,18.0263794 57.03126,20.1259794 58.78906,21.4442794 C66.45506,27.2548794 71.33786,36.4345794 71.38676,46.8837794 C71.43556,64.6571794 57.17776,78.8661994 39.40426,78.8661994 C21.67966,78.8661994 7.51956,64.6571794 7.51956,46.8837794 C7.51956,31.7470794 17.77346,19.1981794 31.83596,15.8290794 L31.83596,20.8095794 C31.83596,23.8368794 33.88676,24.6181794 36.18166,23.0067794 L48.58396,14.3153794 C50.48826,12.9970794 50.53706,10.9462794 48.58396,9.57907942 L36.23046,0.887679418 C33.88676,-0.821320582 31.83596,-0.0400205824 31.83596,3.03607942 L31.83596,8.21187942 C13.81836,11.8251794 -8.8817842e-16,27.9384794 -8.8817842e-16,46.8837794 Z" id="Path"></path>
                </g>
                <g id="Light-S" transform="translate(615.546140, 5.047135)">
                    <path d="M-8.8817842e-16,46.0710535 C-8.8817842e-16,67.2560535 17.52636,84.7487635 38.67776,84.7487635 C59.84766,84.7487635 77.38916,67.2560535 77.38916,46.0710535 C77.38916,33.0578535 70.69676,21.4015535 60.62696,14.3986535 C59.14646,13.2819535 57.29546,13.6457535 56.47856,15.0134535 C55.64306,16.4113535 56.09276,18.0265535 57.44186,19.0270535 C66.03126,24.9284535 71.62546,34.8044535 71.65916,46.0710535 C71.69286,64.3590535 56.96586,79.0524535 38.67776,79.0524535 C20.42336,79.0524535 5.74856,64.3590535 5.74856,46.0710535 C5.74856,30.2682535 16.69876,17.1442535 31.50296,13.8962535 L31.50296,19.8000535 C31.50296,22.2521535 33.17526,22.9426535 35.10696,21.5734535 L47.17626,13.1393535 C48.79296,12.0177535 48.82666,10.3302535 47.17626,9.19015355 L35.14066,0.740953546 C33.17526,-0.695546454 31.50296,-0.00514645394 31.50296,2.48065355 L31.50296,8.06515355 C13.66696,11.4967535 -8.8817842e-16,27.3376535 -8.8817842e-16,46.0710535 Z" id="Path"></path>
                </g>
                <g id="Thin-S" transform="translate(319.809140, 6.162033)">
                    <path d="M-8.8817842e-16,44.9961558 C-8.8817842e-16,65.7207558 17.00586,82.7129758 37.71676,82.7129758 C58.40626,82.7129758 75.44726,65.7207558 75.44726,44.9961558 C75.44726,31.5625558 68.23436,19.6660558 57.50396,13.0235558 C56.58406,12.3672558 55.51366,12.6309558 55.03716,13.4180558 C54.58206,14.2754558 54.85156,15.2500558 55.66016,15.8301558 C65.47066,21.8516558 72.00586,32.6485558 72.01956,44.9961558 C72.03316,63.9648558 56.68556,79.2988778 37.71676,79.2988778 C18.76176,79.2988778 3.40626,63.9648558 3.40626,44.9961558 C3.40626,28.3125558 15.27736,14.4278558 31.06246,11.3399558 L31.06246,18.4649558 C31.06246,20.1563558 32.23436,20.7266558 33.68556,19.6778558 L45.31446,11.5840558 C46.55076,10.7227558 46.56446,9.5156558 45.31446,8.6758558 L33.69926,0.5469558 C32.23436,-0.5292442 31.06246,0.0410558004 31.06246,1.7461558 L31.06246,7.8711558 C13.46676,11.0625558 -8.8817842e-16,26.5430558 -8.8817842e-16,44.9961558 Z" id="Path"></path>
                </g>
                <g id="Ultralight-S" transform="translate(23.595140, 6.733052)">
                    <path d="M-8.8817842e-16,44.4456372 C-8.8817842e-16,64.9344372 16.73926,81.6702772 37.22466,81.6702772 C57.66796,81.6702772 74.45266,64.9344372 74.45266,44.4456372 C74.45266,30.7967372 66.97316,18.7772372 55.90436,12.3192372 C55.27156,11.8987372 54.60106,12.1111372 54.29886,12.6009372 C54.03856,13.1815372 54.21586,13.8280372 54.74756,14.1927372 C65.18356,20.2757372 72.20066,31.5443372 72.20406,44.4456372 C72.20756,63.7630372 56.54196,79.4251192 37.22466,79.4251192 C17.91066,79.4251192 2.20658,63.7630372 2.20658,44.4456372 C2.20658,27.3109372 14.54936,13.0365372 30.83696,10.0306372 L30.83696,17.7811372 C30.83696,19.0828372 31.75246,19.5916372 32.95756,18.7069372 L44.36086,10.7874372 C45.40236,10.0594372 45.40576,9.09843723 44.36086,8.41243723 L32.96096,0.447637228 C31.75246,-0.444062772 30.83696,0.0647372277 30.83696,1.36993723 L30.83696,7.77183723 C13.36426,10.8401372 -8.8817842e-16,26.1360372 -8.8817842e-16,44.4456372 Z" id="Path"></path>
                </g>
            </g>
        </g>
    </g>
</svg>