
<svg width="3300px" height="2200px" viewBox="0 0 3300 2200" version="1.1" xmlns="http://www.w3.org/2000/svg" xmlns:xlink="http://www.w3.org/1999/xlink">
    <g id="back" stroke="none" stroke-width="1" fill="none" fill-rule="evenodd">
        <g id="gobackward">
            <g id="Notes">
                <rect id="artboard" fill="#FFFFFF" fill-rule="nonzero" x="0" y="0" width="3300" height="2200"></rect>
                <line x1="263" y1="292" x2="3036" y2="292" id="Path" stroke="#000000" stroke-width="0.5"></line>
                <text id="Weight/Scale-Variations" fill="#000000" fill-rule="nonzero" font-family="Helvetica" font-size="13" font-weight="normal">
                    <tspan x="263" y="322">Weight/Scale Variations</tspan>
                </text>
                <text id="Ultralight" fill="#000000" fill-rule="nonzero" font-family="Helvetica" font-size="13" font-weight="normal">
                    <tspan x="533.711" y="322">Ultralight</tspan>
                </text>
                <text id="Thin" fill="#000000" fill-rule="nonzero" font-family="Helvetica" font-size="13" font-weight="normal">
                    <tspan x="843.422" y="322">Thin</tspan>
                </text>
                <text id="Light" fill="#000000" fill-rule="nonzero" font-family="Helvetica" font-size="13" font-weight="normal">
                    <tspan x="1138.63" y="322">Light</tspan>
                </text>
                <text id="Regular" fill="#000000" fill-rule="nonzero" font-family="Helvetica" font-size="13" font-weight="normal">
                    <tspan x="1426.84" y="322">Regular</tspan>
                </text>
                <text id="Medium" fill="#000000" fill-rule="nonzero" font-family="Helvetica" font-size="13" font-weight="normal">
                    <tspan x="1723.06" y="322">Medium</tspan>
                </text>
                <text id="Semibold" fill="#000000" fill-rule="nonzero" font-family="Helvetica" font-size="13" font-weight="normal">
                    <tspan x="2015.77" y="322">Semibold</tspan>
                </text>
                <text id="Bold" fill="#000000" fill-rule="nonzero" font-family="Helvetica" font-size="13" font-weight="normal">
                    <tspan x="2326.48" y="322">Bold</tspan>
                </text>
                <text id="Heavy" fill="#000000" fill-rule="nonzero" font-family="Helvetica" font-size="13" font-weight="normal">
                    <tspan x="2618.19" y="322">Heavy</tspan>
                </text>
                <text id="Black" fill="#000000" fill-rule="nonzero" font-family="Helvetica" font-size="13" font-weight="normal">
                    <tspan x="2917.4" y="322">Black</tspan>
                </text>
                <line x1="263" y1="1903" x2="3036" y2="1903" id="Path" stroke="#000000" stroke-width="0.5"></line>
                <g id="Group" transform="translate(264.367190, 1918.068400)" fill="#000000" fill-rule="nonzero">
                    <path d="M7.88086,15.761678 C12.18751,15.761678 15.77151,12.18746 15.77151,7.88082 C15.77151,3.5742 12.17771,0 7.87109,0 C3.57422,0 -8.8817842e-16,3.5742 -8.8817842e-16,7.88082 C-8.8817842e-16,12.18746 3.58398,15.761678 7.88086,15.761678 Z M7.88086,14.277303 C4.33593,14.277303 1.5039,11.43551 1.5039,7.88082 C1.5039,4.3261 4.32617,1.4843 7.87109,1.4843 C11.42581,1.4843 14.27731,4.3261 14.27731,7.88082 C14.27731,11.43551 11.43551,14.277303 7.88086,14.277303 Z M4.28711,7.88082 C4.28711,8.31051 4.58984,8.60348 5.03906,8.60348 L7.13867,8.60348 L7.13867,10.72262 C7.13867,11.16207 7.43164,11.4648 7.86133,11.4648 C8.31054,11.4648 8.60351,11.16207 8.60351,10.72262 L8.60351,8.60348 L10.72261,8.60348 C11.16211,8.60348 11.46481,8.31051 11.46481,7.88082 C11.46481,7.44137 11.16211,7.13863 10.72261,7.13863 L8.60351,7.13863 L8.60351,5.02926 C8.60351,4.58 8.31054,4.2773 7.86133,4.2773 C7.43164,4.2773 7.13867,4.58 7.13867,5.02926 L7.13867,7.13863 L5.03906,7.13863 C4.58984,7.13863 4.28711,7.44137 4.28711,7.88082 Z" id="Shape"></path>
                </g>
                <g id="Group" transform="translate(283.615050, 1915.988300)" fill="#000000" fill-rule="nonzero">
                    <path d="M9.96095,19.92186 C15.41015,19.92186 19.92185,15.40037 19.92185,9.96092 C19.92185,4.5117 15.40035,0 9.95115,0 C4.51172,0 8.8817842e-16,4.5117 8.8817842e-16,9.96092 C8.8817842e-16,15.40037 4.52148,19.92186 9.96095,19.92186 Z M9.96095,18.2617 C5.35156,18.2617 1.66992,14.57029 1.66992,9.96092 C1.66992,5.3515 5.34179,1.6601 9.95115,1.6601 C14.56055,1.6601 18.26175,5.3515 18.26175,9.96092 C18.26175,14.57029 14.57035,18.2617 9.96095,18.2617 Z M5.42968,9.96092 C5.42968,10.43943 5.76172,10.7617 6.25976,10.7617 L9.13085,10.7617 L9.13085,13.64256 C9.13085,14.13084 9.46285,14.47264 9.94145,14.47264 C10.42965,14.47264 10.77145,14.14061 10.77145,13.64256 L10.77145,10.7617 L13.65235,10.7617 C14.14065,10.7617 14.48245,10.43943 14.48245,9.96092 C14.48245,9.47264 14.14065,9.13084 13.65235,9.13084 L10.77145,9.13084 L10.77145,6.2597 C10.77145,5.7617 10.42965,5.4199 9.94145,5.4199 C9.46285,5.4199 9.13085,5.7617 9.13085,6.2597 L9.13085,9.13084 L6.25976,9.13084 C5.76172,9.13084 5.42968,9.47264 5.42968,9.96092 Z" id="Shape"></path>
                </g>
                <g id="Group" transform="translate(307.901860, 1913.224600)" fill="#000000" fill-rule="nonzero">
                    <path d="M12.71484,25.43946 C19.67774,25.43946 25.43944,19.6777438 25.43944,12.72462 C25.43944,5.7617 19.66794,0 12.70504,0 C5.75195,0 0,5.7617 0,12.72462 C0,19.6777438 5.76172,25.43946 12.71484,25.43946 Z M12.71484,23.62306 C6.67969,23.62306 1.82617,18.75978 1.82617,12.72462 C1.82617,6.6797 6.66992,1.8262 12.70504,1.8262 C18.75004,1.8262 23.61324,6.6797 23.61324,12.72462 C23.61324,18.75978 18.75974,23.62306 12.71484,23.62306 Z M6.94336,12.72462 C6.94336,13.2422 7.31445,13.60352 7.86134,13.60352 L11.80664,13.60352 L11.80664,17.5586 C11.80664,18.09571 12.17774,18.47657 12.69534,18.47657 C13.23244,18.47657 13.60354,18.10548 13.60354,17.5586 L13.60354,13.60352 L17.55864,13.60352 C18.09574,13.60352 18.47654,13.2422 18.47654,12.72462 C18.47654,12.17774 18.10544,11.80665 17.55864,11.80665 L13.60354,11.80665 L13.60354,7.8613 C13.60354,7.3145 13.23244,6.9336 12.69534,6.9336 C12.17774,6.9336 11.80664,7.3145 11.80664,7.8613 L11.80664,11.80665 L7.86134,11.80665 C7.31445,11.80665 6.94336,12.17774 6.94336,12.72462 Z" id="Shape"></path>
                </g>
                <text id="Design-Variations" fill="#000000" fill-rule="nonzero" font-family="Helvetica" font-size="13" font-weight="normal">
                    <tspan x="263" y="1953">Design Variations</tspan>
                </text>
                <text id="Symbols-are-supported-in-up-to-nine-weights-and-three-scales." fill="#000000" fill-rule="nonzero" font-family="Helvetica" font-size="13" font-weight="normal">
                    <tspan x="263" y="1971">Symbols are supported in up to nine weights and three scales.</tspan>
                </text>
                <text id="For-optimal-layout-with-text-and-other-symbols,-vertically-align" fill="#000000" fill-rule="nonzero" font-family="Helvetica" font-size="13" font-weight="normal">
                    <tspan x="263" y="1989">For optimal layout with text and other symbols, vertically align</tspan>
                </text>
                <text id="symbols-with-the-adjacent-text." fill="#000000" fill-rule="nonzero" font-family="Helvetica" font-size="13" font-weight="normal">
                    <tspan x="263" y="2007">symbols with the adjacent text.</tspan>
                </text>
                <line x1="776" y1="1919" x2="776" y2="1933" id="Path" stroke="#00AEEF" stroke-width="0.5"></line>
                <g id="Group" transform="translate(778.490230, 1918.732400)" fill="#000000" fill-rule="nonzero">
                    <path d="M0.82032,14.42385 C1.33789,14.42385 1.5918,14.2285375 1.77735,13.681662 L3.03711,10.2344 L8.79887,10.2344 L10.05857,13.681662 C10.24417,14.2285375 10.49807,14.42385 11.00587,14.42385 C11.52347,14.42385 11.85547,14.11135 11.85547,13.623069 C11.85547,13.457053 11.82617,13.300803 11.74807,13.09572 L7.16797,0.8985 C6.94336,0.3028 6.54297,0 5.91797,0 C5.3125,0 4.90235,0.293 4.6875,0.8887 L0.10743,13.10549 C0.0293,13.310569 -4.4408921e-16,13.466819 -4.4408921e-16,13.632834 C-4.4408921e-16,14.121116 0.3125,14.42385 0.82032,14.42385 Z M3.51563,8.75002 L5.88868,2.1778 L5.9375,2.1778 L8.31057,8.75002 L3.51563,8.75002 Z" id="Shape"></path>
                </g>
                <line x1="793.197" y1="1919" x2="793.197" y2="1933" id="Path" stroke="#00AEEF" stroke-width="0.5"></line>
                <text id="Margins" fill="#000000" fill-rule="nonzero" font-family="Helvetica" font-size="13" font-weight="normal">
                    <tspan x="776" y="1953">Margins</tspan>
                </text>
                <text id="Leading-and-trailing-margins-on-the-left-and-right-side-of-each-symbol" fill="#000000" fill-rule="nonzero" font-family="Helvetica" font-size="13" font-weight="normal">
                    <tspan x="776" y="1971">Leading and trailing margins on the left and right side of each symbol</tspan>
                </text>
                <text id="can-be-adjusted-by-modifying-the-x-location-of-the-margin-guidelines." fill="#000000" fill-rule="nonzero" font-family="Helvetica" font-size="13" font-weight="normal">
                    <tspan x="776" y="1989">can be adjusted by modifying the x-location of the margin guidelines.</tspan>
                </text>
                <text id="Modifications-are-automatically-applied-proportionally-to-all" fill="#000000" fill-rule="nonzero" font-family="Helvetica" font-size="13" font-weight="normal">
                    <tspan x="776" y="2007">Modifications are automatically applied proportionally to all</tspan>
                </text>
                <text id="scales-and-weights." fill="#000000" fill-rule="nonzero" font-family="Helvetica" font-size="13" font-weight="normal">
                    <tspan x="776" y="2025">scales and weights.</tspan>
                </text>
                <g id="Group" transform="translate(1291.248126, 1914.517396)" fill="#000000" fill-rule="nonzero">
                    <path d="M0.593673634,20.347834 L2.29289363,22.056824 C3.15226363,22.925964 4.13859363,22.867374 5.06632363,21.841984 L15.7596736,10.054874 L14.7928736,9.07830404 L4.17765363,20.757994 C3.82609363,21.158384 3.49406363,21.256044 3.02531363,20.787294 L1.85343363,19.625184 C1.38468363,19.166198 1.49210363,18.824401 1.89249363,18.4630728 L13.3670736,7.66230404 L12.3905736,6.69550404 L0.798753634,17.584166 C-0.187576366,18.5021352 -0.265706366,19.478698 0.593673634,20.347834 Z M7.00968363,2.15450404 C6.58976363,2.56460404 6.56046363,3.14080404 6.79484363,3.53140404 C7.02921363,3.89280404 7.48820363,4.12710404 8.13277363,3.96110404 C9.59757363,3.61930404 11.1209736,3.56070404 12.5467736,4.49820404 L11.9608736,5.95330404 C11.6190736,6.78340404 11.7948736,7.36930404 12.3319736,7.91620404 L14.6268736,10.230654 C15.1151736,10.718934 15.5252736,10.738464 16.0916736,10.640804 L17.1561736,10.445494 L17.8202736,11.119324 L17.7811736,11.675964 C17.7420736,12.174014 17.8690736,12.554874 18.3573736,13.033384 L19.1190736,13.775574 C19.5975736,14.254084 20.2127736,14.283384 20.6815736,13.814634 L23.5916736,10.894714 C24.0604736,10.425964 24.0409736,9.83026404 23.5623736,9.35174404 L22.7909736,8.59002404 C22.3123736,8.11150404 21.9413736,7.95530404 21.4627736,7.99430404 L20.8866736,8.04310404 L20.2420736,7.40840404 L20.4862736,6.28530404 C20.6131736,5.71890404 20.4569736,5.27950404 19.8709736,4.69350404 L17.6737736,2.50600404 C14.3338736,-0.814295964 9.90027363,-0.736195964 7.00968363,2.15450404 Z M8.50387363,2.52560404 C10.9354736,0.748204036 14.2264736,1.05100404 16.4530736,3.27750404 L18.8846736,5.68960404 C19.1190736,5.92400404 19.1580736,6.10960404 19.0897736,6.45140404 L18.7674736,7.93570404 L20.2713736,9.42010404 L21.2577736,9.36151404 C21.5116736,9.35174404 21.5897736,9.37127404 21.7850736,9.56658404 L22.3612736,10.142764 L19.9198736,12.584164 L19.3436736,12.007994 C19.1483736,11.812684 19.1190736,11.734554 19.1288736,11.470884 L19.1971736,10.494324 L17.7030736,9.00994404 L16.1795736,9.26385404 C15.8573736,9.33221404 15.7108736,9.30291404 15.4666736,9.06854404 L13.4647736,7.06660404 C13.2108736,6.83220404 13.1815736,6.66620404 13.3377736,6.29510404 L14.2166736,4.20530404 C12.6541736,2.75020404 10.6229736,2.12520404 8.59167363,2.72090404 C8.43547363,2.75990404 8.37687363,2.63300404 8.50387363,2.52560404 Z" id="Shape"></path>
                </g>
                <text id="Exporting" fill="#000000" fill-rule="nonzero" font-family="Helvetica" font-size="13" font-weight="normal">
                    <tspan x="1289" y="1953">Exporting</tspan>
                </text>
                <text id="Symbols-should-be-outlined-when-exporting-to-ensure-the" fill="#000000" fill-rule="nonzero" font-family="Helvetica" font-size="13" font-weight="normal">
                    <tspan x="1289" y="1971">Symbols should be outlined when exporting to ensure the</tspan>
                </text>
                <text id="design-is-preserved-when-submitting-to-Xcode." fill="#000000" fill-rule="nonzero" font-family="Helvetica" font-size="13" font-weight="normal">
                    <tspan x="1289" y="1989">design is preserved when submitting to Xcode.</tspan>
                </text>
                <text id="template-version" fill="#000000" fill-rule="nonzero" font-family="Helvetica" font-size="13" font-weight="normal">
                    <tspan x="2952" y="1933">Template v.4.0</tspan>
                </text>
                <text id="Requires-Xcode-14-or-greater" fill="#000000" fill-rule="nonzero" font-family="Helvetica" font-size="13" font-weight="normal">
                    <tspan x="2865" y="1951">Requires Xcode 14 or greater</tspan>
                </text>
                <text id="descriptive-name" fill="#000000" fill-rule="nonzero" font-family="Helvetica" font-size="13" font-weight="normal">
                    <tspan x="2871" y="1969">Generated from gobackward</tspan>
                </text>
                <text id="Typeset-at-100-points" fill="#000000" fill-rule="nonzero" font-family="Helvetica" font-size="13" font-weight="normal">
                    <tspan x="2912" y="1987">Typeset at 100 points</tspan>
                </text>
                <text id="Small" fill="#000000" fill-rule="nonzero" font-family="Helvetica" font-size="13" font-weight="normal">
                    <tspan x="263" y="726">Small</tspan>
                </text>
                <text id="Medium" fill="#000000" fill-rule="nonzero" font-family="Helvetica" font-size="13" font-weight="normal">
                    <tspan x="263" y="1156">Medium</tspan>
                </text>
                <text id="Large" fill="#000000" fill-rule="nonzero" font-family="Helvetica" font-size="13" font-weight="normal">
                    <tspan x="263" y="1586">Large</tspan>
                </text>
            </g>
            <g id="Guides" transform="translate(263.000000, 625.041000)">
                <g id="H-reference" transform="translate(76.993654, 0.500000)" fill="#27AAE1" fill-rule="nonzero">
                    <path d="M0,70.459 L2.644096,70.459 L28.334446,3.3267 L29.036646,3.3267 L29.036646,0 L27.128946,0 L0,70.459 Z M10.694846,45.9791 L45.987846,45.9791 L45.237846,43.7305 L11.444846,43.7305 L10.694846,45.9791 Z M54.125946,70.459 L56.770046,70.459 L29.644546,0 L28.438946,0 L28.438946,3.3267 L54.125946,70.459 Z" id="Shape"></path>
                </g>
                <line x1="0" y1="70.959" x2="2773" y2="70.959" id="Baseline-S" stroke="#27AAE1" stroke-width="0.5"></line>
                <line x1="0" y1="0.5" x2="2773" y2="0.5" id="Capline-S" stroke="#27AAE1" stroke-width="0.5"></line>
                <g id="H-reference" transform="translate(76.993654, 430.500000)" fill="#27AAE1" fill-rule="nonzero">
                    <path d="M0,70.459 L2.644096,70.459 L28.334446,3.3267 L29.036646,3.3267 L29.036646,0 L27.128946,0 L0,70.459 Z M10.694846,45.9791 L45.987846,45.9791 L45.237846,43.7305 L11.444846,43.7305 L10.694846,45.9791 Z M54.125946,70.459 L56.770046,70.459 L29.644546,0 L28.438946,0 L28.438946,3.3267 L54.125946,70.459 Z" id="Shape"></path>
                </g>
                <line x1="0" y1="500.959" x2="2773" y2="500.959" id="Baseline-M" stroke="#27AAE1" stroke-width="0.5"></line>
                <line x1="0" y1="430.499" x2="2773" y2="430.499" id="Capline-M" stroke="#27AAE1" stroke-width="0.5"></line>
                <g id="H-reference" transform="translate(76.993654, 860.500000)" fill="#27AAE1" fill-rule="nonzero">
                    <path d="M0,70.459 L2.644096,70.459 L28.334446,3.3267 L29.036646,3.3267 L29.036646,0 L27.128946,0 L0,70.459 Z M10.694846,45.9791 L45.987846,45.9791 L45.237846,43.7305 L11.444846,43.7305 L10.694846,45.9791 Z M54.125946,70.459 L56.770046,70.459 L29.644546,0 L28.438946,0 L28.438946,3.3267 L54.125946,70.459 Z" id="Shape"></path>
                </g>
                <line x1="0" y1="930.959" x2="2773" y2="930.959" id="Baseline-L" stroke="#27AAE1" stroke-width="0.5"></line>
                <line x1="0" y1="860.499" x2="2773" y2="860.499" id="Capline-L" stroke="#27AAE1" stroke-width="0.5"></line>
                <line x1="1128.32" y1="405.749" x2="1128.32" y2="525.079" id="left-margin-Regular-M" stroke="#00AEEF" stroke-width="0.5"></line>
                <line x1="1245.37" y1="405.749" x2="1245.37" y2="525.079" id="right-margin-Regular-M" stroke="#00AEEF" stroke-width="0.5"></line>
            </g>
            <g id="Symbols" transform="translate(498.889800, 611.234086)" fill="#000000" fill-rule="nonzero">
                <g id="Black-L" transform="translate(2366.559000, 829.194532)">
                    <path d="M-7.10542736e-15,80.3040816 C-7.10542736e-15,117.669162 30.5927,148.241082 67.937,148.241082 C105.3012,148.241082 135.8952,117.669162 135.8952,80.3040816 C135.8952,48.3013816 113.4772,21.2586816 83.5469,14.2113816 L83.5469,5.80738164 C83.5469,-0.125618365 78.4846,-1.69761836 73.001,1.95038164 L48.2214,18.3490816 C43.8228,21.2629816 43.9188,26.7144816 48.2214,29.5919816 L72.9802,46.0474816 C78.4262,49.6958816 83.5469,48.2410816 83.5469,42.1699816 L83.5469,35.2011816 C102.3262,41.6178816 115.7052,59.2940816 115.7052,80.3040816 C115.7052,106.755682 94.3882,128.093482 67.937,128.093482 C41.5062,128.093482 20.1475,106.755682 20.1672,80.3040816 C20.188,66.8844816 25.5411,55.5068816 34.62,46.3385816 C38.7677,41.7976816 40.2477,35.7496816 35.9665,31.1709816 C32.1745,27.0620816 26.156,27.0450816 20.7544,31.8248816 C8.3402,42.3841816 -7.10542736e-15,62.5820816 -7.10542736e-15,80.3040816 Z" id="Path"></path>
                </g>
                <g id="Heavy-L" transform="translate(2070.789000, 830.175031)">
                    <path d="M7.10542736e-15,79.3323824 C7.10542736e-15,116.141042 30.216,146.326882 66.9944,146.326882 C103.7972,146.326882 134.0192,116.141042 134.0192,79.3323824 C134.0192,47.5889824 111.5542,20.7497824 81.759,14.0128824 L81.759,5.43488244 C81.759,-0.0971175603 77.1975,-1.57311756 72.2383,1.77988244 L48.5941,17.6113824 C44.5826,20.2841824 44.6417,25.1335824 48.5941,27.7975824 L72.2081,43.6678824 C77.1528,47.0207824 81.759,45.6338824 81.759,39.9830824 L81.759,32.4553824 C101.7982,38.6343824 116.2172,57.1951824 116.2172,79.3323824 C116.2172,106.609592 94.2712,128.584982 66.9944,128.584982 C39.7474,128.584982 17.7419,106.609592 17.7664,79.3323824 C17.7966,64.7645824 24.0052,52.2878824 34.2125,42.9965824 C37.9377,39.1135824 39.2539,33.8270824 35.6311,29.7536824 C32.4011,26.0484824 27.0372,25.8882824 22.2875,30.0012824 C8.9281,40.8118824 7.10542736e-15,60.7595824 7.10542736e-15,79.3323824 Z" id="Path"></path>
                </g>
                <g id="Bold-L" transform="translate(1775.259000, 831.419251)">
                    <path d="M7.10542736e-15,78.1034628 C7.10542736e-15,114.228022 29.725,143.915063 65.8116,143.915063 C101.9232,143.915063 131.6612,114.228022 131.6612,78.1034628 C131.6612,46.6900628 109.1722,20.1268628 79.5609,13.7664628 L79.5609,4.92066283 C79.5609,-0.0583371713 75.6291,-1.41233717 71.3156,1.56466283 L49.003,16.7189628 C45.4755,19.0847628 45.4959,23.1961628 49.003,25.5839628 L71.2776,40.7543628 C75.5999,43.7309628 79.5609,42.4359628 79.5609,37.3598628 L79.5609,29.0436628 C101.1372,34.9380628 116.8392,54.5901628 116.8392,78.1034628 C116.8392,106.395133 94.1032,129.169363 65.8116,129.169363 C37.5579,129.169363 14.7456,106.395133 14.7704,78.1034628 C14.8084,62.1065628 22.0996,48.2772628 33.7352,38.8322628 C36.9156,35.7414628 38.0244,31.3926628 35.1863,27.9565628 C32.6331,24.7806628 28.106,24.4734628 24.1632,27.7791628 C9.658,38.8226628 7.10542736e-15,58.5225628 7.10542736e-15,78.1034628 Z" id="Path"></path>
                </g>
                <g id="Semibold-L" transform="translate(1479.359000, 832.276782)">
                    <path d="M7.10542736e-15,77.2564312 C7.10542736e-15,112.909424 29.3865,142.252531 64.9961,142.252531 C100.6302,142.252531 130.0352,112.909424 130.0352,77.2564312 C130.0352,46.0706312 107.5302,19.6976312 78.0455,13.5969312 L78.0455,4.56713124 C78.0455,-0.0318687638 74.5479,-1.30086876 70.6794,1.41613124 L49.2848,16.1040312 C46.091,18.2581312 46.0848,21.8608312 49.2848,24.0581312 L70.6361,38.7459312 C74.5294,41.4632312 78.0455,40.2316312 78.0455,35.5516312 L78.0455,26.6919312 C100.6822,32.3901312 117.2692,52.7945312 117.2692,77.2564312 C117.2692,106.247521 93.9872,129.572531 64.9961,129.572531 C36.0484,129.572531 12.6801,106.247521 12.7049,77.2564312 C12.7483,60.2743312 20.786,45.5125312 33.4062,35.9617312 C36.2109,33.4169312 37.1768,29.7145312 34.8797,26.7179312 C32.7931,23.9068312 28.8428,23.4984312 25.4562,26.2474312 C10.1612,37.4515312 7.10542736e-15,56.9806312 7.10542736e-15,77.2564312 Z" id="Path"></path>
                </g>
                <g id="Medium-L" transform="translate(1183.269000, 832.926559)">
                    <path d="M-7.10542736e-15,76.6145545 C-7.10542736e-15,111.910047 29.1298,140.992455 64.3778,140.992455 C99.6512,140.992455 128.8032,111.910047 128.8032,76.6145545 C128.8032,45.6014545 106.2842,19.3725545 76.8965,13.4688545 L76.8965,4.29935455 C76.8965,-0.0116454516 73.7281,-1.21664545 70.1971,1.30435455 L49.4986,15.6381545 C46.5577,17.6317545 46.5313,20.8487545 49.4986,22.9016545 L70.1496,37.2234545 C73.7176,39.7441545 76.8965,38.5606545 76.8965,34.1810545 L76.8965,24.9091545 C100.3362,30.4585545 117.5942,51.4333545 117.5942,76.6145545 C117.5942,106.136035 93.8992,129.878555 64.3778,129.878555 C34.9038,129.878555 11.1138,106.136035 11.1388,76.6145545 C11.1863,58.8855545 19.7899,43.4166545 33.1567,33.7855545 C35.6766,31.6548545 36.5341,28.4425545 34.6472,25.7791545 C32.9144,23.2447545 29.4015,22.7594545 26.4366,25.0864545 C10.5428,36.4123545 -7.10542736e-15,55.8118545 -7.10542736e-15,76.6145545 Z" id="Path"></path>
                </g>
                <g id="Regular-L" transform="translate(887.359000, 833.774204)">
                    <path d="M-7.10542736e-15,75.7773099 C-7.10542736e-15,110.606403 28.795,139.34871 63.5713,139.34871 C98.3732,139.34871 127.1952,110.606403 127.1952,75.7773099 C127.1952,44.9892099 104.6602,18.9485099 75.3978,13.3016099 L75.3978,3.94970994 C75.3978,0.0147099396 72.6588,-1.10629006 69.5679,1.15870994 L49.7774,15.0305099 C47.1665,16.8146099 47.1137,19.5285099 49.7774,21.3930099 L69.5152,35.2376099 C72.6588,37.5017099 75.3978,36.3810099 75.3978,32.3931099 L75.3978,22.5836099 C99.8862,27.9390099 118.0192,49.6579099 118.0192,75.7773099 C118.0192,105.9905 93.7842,130.27771 63.5713,130.27771 C33.4109,130.27771 9.071,105.9905 9.0961,75.7773099 C9.1488,57.0740099 18.4907,40.6828099 32.8313,30.9469099 C34.9797,29.3564099 35.6958,26.7833099 34.344,24.5545099 C33.0726,22.3810099 30.1302,21.7955099 27.7154,23.5720099 C11.0405,35.0568099 -7.10542736e-15,54.2873099 -7.10542736e-15,75.7773099 Z" id="Path"></path>
                </g>
                <g id="Light-L" transform="translate(591.569000, 834.824200)">
                    <path d="M-7.10542736e-15,74.7655138 C-7.10542736e-15,109.155617 28.2988,137.420714 62.6553,137.420714 C96.9982,137.420714 125.3442,109.155617 125.3442,74.7655138 C125.3442,44.2637138 103.0192,18.5665138 73.9855,13.1295138 L73.9855,3.26271384 C73.9855,0.0527138372 71.7427,-0.953286163 69.0717,0.985713837 L49.7201,14.5530138 C47.4718,16.0700138 47.4382,18.3258138 49.7201,19.9232138 L69.038,33.4433138 C71.7427,35.3830138 73.9855,34.3767138 73.9855,31.1332138 L73.9855,20.1595138 C99.3902,25.3813138 118.3812,47.8254138 118.3812,74.7655138 C118.3812,105.627574 93.5172,130.525514 62.6553,130.525514 C31.8269,130.525514 6.8952,105.627574 6.8822,74.7655138 C6.9158,55.0316138 17.1547,37.7625138 32.6786,27.9121138 C34.3117,26.7223138 34.8561,24.7600138 33.8478,23.0465138 C32.9199,21.4265138 30.7218,20.9364138 28.8606,22.2739138 C11.5558,33.4151138 -7.10542736e-15,52.8747138 -7.10542736e-15,74.7655138 Z" id="Path"></path>
                </g>
                <g id="Thin-L" transform="translate(296.085000, 836.212982)">
                    <path d="M0,73.4272315 C0,107.236751 27.6425,134.870831 61.4436,134.870831 C95.1812,134.870831 122.8962,107.236751 122.8962,73.4272315 C122.8962,43.3040315 100.8482,18.0611315 72.1176,12.9019315 L72.1176,2.35293147 C72.1176,0.102931474 70.5311,-0.752068526 68.4154,0.758931474 L49.6444,13.9215315 C47.8757,15.0850315 47.8673,16.7351315 49.6444,17.9790315 L68.407,31.0701315 C70.5311,32.5806315 72.1176,31.7258315 72.1176,29.4667315 L72.1176,16.9533315 C98.7342,21.9984315 118.8612,45.4017315 118.8612,73.4272315 C118.8612,105.147491 93.1642,130.853131 61.4436,130.853131 C29.7318,130.853131 4.0177,105.147491 3.9541,73.4272315 C3.9626,52.3302315 15.3878,33.9000315 32.4767,23.8981315 C33.4283,23.2384315 33.7454,22.0839315 33.1915,21.0519315 C32.718,20.1639315 31.5043,19.8000315 30.3751,20.5570315 C12.2373,31.2438315 0,51.0063315 0,73.4272315 Z" id="Path"></path>
                </g>
                <g id="Ultralight-L" transform="translate(0.000000, 836.924261)">
                    <path d="M0,72.7417523 C0,106.253972 27.3064,133.564852 60.8231,133.564852 C94.2502,133.564852 121.6412,106.253972 121.6412,72.7417523 C121.6412,42.8125523 99.7362,17.8023523 71.1608,12.7853523 L71.1608,1.88765226 C71.1608,0.128652258 69.9105,-0.648347742 68.0793,0.641652258 L49.6056,13.5980523 C48.0826,14.5806523 48.0871,15.9203523 49.6056,16.9833523 L68.0838,29.8545523 C69.9105,31.1453523 71.1608,30.3681523 71.1608,28.6132523 L71.1608,15.3111523 C98.3972,20.2657523 119.1072,44.1603523 119.1072,72.7417523 C119.1072,104.901652 92.9832,131.021052 60.8231,131.021052 C28.6587,131.021052 2.5438,104.901652 2.4544,72.7417523 C2.4499,50.9466523 14.4828,31.9217523 32.3733,21.8422523 C32.9758,21.4540523 33.1766,20.7132523 32.8553,20.0303523 C32.6145,19.5172523 31.9051,19.2180523 31.1508,19.6776523 C12.5864,30.1317523 0,50.0494523 0,72.7417523 Z" id="Path"></path>
                </g>
                <g id="Black-M" transform="translate(2381.192860, 416.591379)">
                    <path d="M1.77635684e-15,62.9133349 C1.77635684e-15,92.2803849 23.95804,116.232935 53.31954,116.232935 C82.68694,116.232935 106.64434,92.2803849 106.64434,62.9133349 C106.64434,37.9355349 89.34664,16.8560349 66.07254,11.1575349 L66.07254,4.72693491 C66.07254,-0.117365089 61.78744,-1.40136509 57.14514,1.63533491 L37.03104,14.7855349 C33.33964,17.2139349 33.44834,21.8930349 37.03104,24.2696349 L57.13964,37.4772349 C61.73034,40.5139349 66.07254,39.3440349 66.07254,34.3801349 L66.07254,29.3036349 C79.66344,34.4610349 89.25174,47.4936349 89.25174,62.9133349 C89.25174,82.7849349 73.19114,98.8510229 53.31954,98.8510229 C33.45354,98.8510229 17.38184,82.7849349 17.38764,62.9133349 C17.39314,53.3637349 20.92674,45.3747349 27.15104,38.3618349 C30.65784,34.3327349 31.92194,29.0752349 28.08574,25.1636349 C24.71154,21.7082349 19.58694,21.8312349 14.91684,26.0478349 C6.02604,33.9660349 1.77635684e-15,49.8603349 1.77635684e-15,62.9133349 Z" id="Path"></path>
                </g>
                <g id="Heavy-M" transform="translate(2085.312860, 417.453462)">
                    <path d="M1.77635684e-15,62.0563519 C1.77635684e-15,90.9199419 23.63554,114.539052 52.48264,114.539052 C81.34404,114.539052 104.98134,90.9199419 104.98134,62.0563519 C104.98134,37.3055519 87.61764,16.3933519 64.45504,10.9789519 L64.45504,4.42545191 C64.45504,-0.0925480915 60.61364,-1.29394809 56.44544,1.48375191 L37.40064,14.1079519 C34.05434,16.3254519 34.12514,20.4580519 37.40064,22.6505519 L56.42894,35.3161519 C60.57004,38.0938519 64.45504,36.9797519 64.45504,32.3580519 L64.45504,26.8425519 C79.19274,31.7800519 89.71804,45.6103519 89.71804,62.0563519 C89.71804,82.6751519 73.10144,99.3081619 52.48264,99.3081619 C31.88034,99.3081619 15.23084,82.6751519 15.24504,62.0563519 C15.26144,51.4793519 19.54854,42.4969519 26.76684,35.3743519 C29.90804,31.9514519 31.02784,27.3820519 27.80364,23.9168519 C24.94714,20.8050519 20.39384,20.7791519 16.30994,24.3844519 C6.55324,32.5800519 1.77635684e-15,48.2085519 1.77635684e-15,62.0563519 Z" id="Path"></path>
                </g>
                <g id="Bold-M" transform="translate(1789.522860, 418.417510)">
                    <path d="M1.77635684e-15,61.0980037 C1.77635684e-15,89.3984037 23.27474,112.644504 51.54654,112.644504 C79.84174,112.644504 103.12134,89.3984037 103.12134,61.0980037 C103.12134,36.6011037 85.68344,15.8761037 62.64564,10.7796037 L62.64564,4.08860369 C62.64564,-0.0645963084 59.30064,-1.17339631 55.66254,1.31450369 L37.81414,13.3503037 C34.85374,15.3318037 34.88224,18.8531037 37.81414,20.8398037 L55.63394,32.8990037 C59.27204,35.3869037 62.64564,34.3352037 62.64564,30.0963037 L62.64564,24.0899037 C78.66614,28.7812037 90.23974,43.5041037 90.23974,61.0980037 C90.23974,82.5526037 73.00114,99.8198437 51.54654,99.8198437 C30.12054,99.8198437 12.82464,82.5526037 12.84814,61.0980037 C12.87684,49.3718037 18.00684,39.2780037 26.33694,32.0327037 C29.06934,29.2878037 30.02774,25.4884037 27.48814,22.5224037 C25.21064,19.7950037 21.29644,19.6025037 17.86834,22.5240037 C7.14294,31.0299037 1.77635684e-15,46.3611037 1.77635684e-15,61.0980037 Z" id="Path"></path>
                </g>
                <g id="Semibold-M" transform="translate(1493.452860, 419.081875)">
                    <path d="M1.77635684e-15,60.4376385 C1.77635684e-15,88.3497085 23.02604,111.338739 50.90114,111.338739 C78.80614,111.338739 101.83934,88.3497085 101.83934,60.4376385 C101.83934,36.1157385 84.34994,15.5197385 61.39814,10.6423385 L61.39814,3.8565385 C61.39814,-0.0449614974 58.39544,-1.0900615 55.12294,1.1980385 L38.09924,12.8282385 C35.40484,14.6470385 35.40414,17.7469385 38.09924,19.5916385 L55.08584,31.2329385 C58.37734,33.5209385 61.39814,32.5122385 61.39814,28.5373385 L61.39814,22.1924385 C78.30314,26.7140385 90.59934,42.0522385 90.59934,60.4376385 C90.59934,82.4684385 72.93194,100.172849 50.90114,100.172849 C28.90734,100.172849 11.16584,82.4684385 11.19584,60.4376385 C11.23284,47.9190385 16.94394,37.0590385 26.04064,29.7292385 C28.49114,27.4518385 29.33824,24.1830385 27.27064,21.5612385 C25.39234,19.0989385 21.91874,18.7916385 18.94264,21.2417385 C7.54954,29.9614385 1.77635684e-15,45.0877385 1.77635684e-15,60.4376385 Z" id="Path"></path>
                </g>
                <g id="Medium-M" transform="translate(1197.232860, 419.585463)">
                    <path d="M1.77635684e-15,59.9370507 C1.77635684e-15,87.5547107 22.83744,110.348751 50.41174,110.348751 C78.02084,110.348751 100.86734,87.5547107 100.86734,59.9370507 C100.86734,35.7479507 83.33894,15.2496507 60.45234,10.5384507 L60.45234,3.68075071 C60.45234,-0.0300492879 57.70914,-1.02664929 54.71374,1.10995071 L38.31534,12.4325507 C35.82274,14.1279507 35.79994,16.9083507 38.31534,18.6454507 L54.67024,29.9697507 C57.69884,32.1063507 60.45234,31.1302507 60.45234,27.3554507 L60.45234,20.7538507 C78.02784,25.1468507 90.87194,40.9515507 90.87194,59.9370507 C90.87194,82.4047507 72.87944,100.440661 50.41174,100.440661 C27.98744,100.440661 9.90804,82.4047507 9.94294,59.9370507 C9.98634,46.8176507 16.13804,35.3767507 25.81594,27.9828507 C28.05274,26.0598507 28.81554,23.1935507 27.10564,20.8326507 C25.53004,18.5713507 22.39054,18.1768507 19.75724,20.2695507 C7.85784,29.1515507 1.77635684e-15,44.1224507 1.77635684e-15,59.9370507 Z" id="Path"></path>
                </g>
                <g id="Regular-M" transform="translate(901.152860, 420.242043)">
                    <path d="M0,59.2843708 C0,86.5180208 22.59144,109.057771 49.77344,109.057771 C76.99654,109.057771 99.59834,86.5180208 99.59834,59.2843708 C99.59834,35.2683708 82.02014,14.8977708 59.21864,10.4032708 L59.21864,3.45177078 C59.21864,-0.0101292222 56.81384,-0.943729222 54.17994,0.995270778 L38.59724,11.9166708 C36.36784,13.4511708 36.31604,15.8147708 38.59724,17.4115708 L54.12824,28.3224708 C56.81384,30.2614708 59.21864,29.3278708 59.21864,25.8141708 L59.21864,18.8777708 C77.66884,23.1029708 91.22764,39.5161708 91.22764,59.2843708 C91.22764,82.3219708 72.81104,100.790271 49.77344,100.790271 C26.78754,100.790271 8.26754,82.3219708 8.30874,59.2843708 C8.36044,45.3813708 15.08684,33.1827708 25.52284,25.7051708 C27.48094,24.2445708 28.13364,21.9030708 26.89054,19.8826708 C25.70974,17.8833708 23.00594,17.3753708 20.81974,19.0018708 C8.25984,28.0953708 0,42.8635708 0,59.2843708 Z M40.2587649,78.3793708 L61.2689847,78.3793708 C62.8398915,78.3793708 63.99414,77.3463092 63.99414,75.6975144 C63.99414,74.0311321 62.8398915,73.0501633 61.2689847,73.0501633 L46.376064,73.0501633 L46.376064,72.7547755 L56.0643978,62.4033058 C59.7018466,58.5129307 62.2032208,55.2963278 62.2032208,50.7431518 C62.2032208,44.5265247 57.2574227,40.3793708 49.6688798,40.3793708 C43.8601173,40.3793708 38.7472371,43.9011602 37.3930764,48.5026602 C37.2541344,49.0847257 37.2020416,49.614531 37.2020416,50.15313 C37.2020416,51.7417082 38.2696084,52.7747698 39.8493091,52.7747698 C41.3166166,52.7747698 42.019869,51.8460612 42.7222001,50.6908915 C43.8154783,48.2236875 45.9599081,45.5785139 49.9723076,45.5785139 C53.8378925,45.5785139 56.4229334,47.8416181 56.4229334,51.2110655 C56.4229334,54.1853783 53.9223967,56.6988126 51.5195968,59.2758134 L38.435853,73.283827 C37.7326844,74.0390884 37.3682025,74.8634439 37.3682025,75.7054707 C37.3682025,77.3463092 38.4446468,78.3793708 40.2587649,78.3793708 Z" id="Shape"></path>
                </g>
                <g id="Light-M" transform="translate(605.272860, 421.183358)">
                    <path d="M1.77635684e-15,58.3772556 C1.77635684e-15,85.2173756 22.14664,107.329356 48.95214,107.329356 C75.76454,107.329356 97.93934,85.2173756 97.93934,58.3772556 C97.93934,34.6179556 80.54864,14.5553556 57.95244,10.2490556 L57.95244,2.83555562 C57.95244,0.0238556206 55.99254,-0.807044379 53.73504,0.841055621 L38.54594,11.4886556 C36.64164,12.7836556 36.60694,14.7365556 38.54594,16.0938556 L53.70044,26.7137556 C55.99254,28.3618556 57.95244,27.5309556 57.95244,24.6846556 L57.95244,16.7044556 C77.22394,20.8098556 91.55234,37.8733556 91.55234,58.3772556 C91.55234,81.9966556 72.57154,101.012496 48.95214,101.012496 C25.36734,101.012496 6.31684,81.9966556 6.32384,58.3772556 C6.35844,43.5502556 13.88904,30.5645556 25.38594,22.9843556 C26.88204,21.8829556 27.38074,20.0890556 26.44564,18.5306556 C25.57284,17.0275556 23.53644,16.6051556 21.84644,17.8380556 C8.72184,26.6235556 1.77635684e-15,41.5971556 1.77635684e-15,58.3772556 Z" id="Path"></path>
                </g>
                <g id="Thin-M" transform="translate(309.660860, 422.428299)">
                    <path d="M1.77635684e-15,57.1775147 C1.77635684e-15,83.4971947 21.55824,105.043415 47.86584,105.043415 C74.13514,105.043415 95.74334,83.4971947 95.74334,57.1775147 C95.74334,33.7577147 78.60234,14.1024147 56.27774,10.0451147 L56.27774,2.02061465 C56.27774,0.068814651 54.90624,-0.626285349 53.14664,0.637114651 L38.47804,10.9226147 C37.00374,11.9008147 36.99164,13.3106147 38.47804,14.3510147 L53.13464,24.5862147 C54.90624,25.8496147 56.27774,25.1545147 56.27774,23.1907147 L56.27774,13.8301147 C76.63554,17.7771147 91.98234,35.7005147 91.98234,57.1775147 C91.98234,81.5664147 72.25464,101.306435 47.86584,101.306435 C23.48904,101.306435 3.73694,81.5664147 3.69864,57.1775147 C3.71064,41.1285147 12.30494,27.1018147 25.20484,19.3858147 C26.08994,18.7597147 26.38494,17.6900147 25.85724,16.7426147 C25.39184,15.8958147 24.23794,15.5865147 23.20424,16.2989147 C9.33294,24.6771147 1.77635684e-15,39.9222147 1.77635684e-15,57.1775147 Z" id="Path"></path>
                </g>
                <g id="Ultralight-M" transform="translate(13.511860, 423.065981)">
                    <path d="M1.77635684e-15,56.5630321 C1.77635684e-15,82.6160921 21.25684,103.872532 47.30944,103.872532 C73.30064,103.872532 94.61934,82.6160921 94.61934,56.5630321 C94.61934,33.3171321 77.60554,13.8704321 55.42004,9.94063213 L55.42004,1.60313213 C55.42004,0.0918321331 54.34984,-0.533667867 52.84534,0.532632133 L38.44324,10.6327321 C37.18914,11.4485321 37.18874,12.5801321 38.44324,13.4583321 L52.84494,23.4965321 C54.34984,24.5628321 55.42004,23.9373321 55.42004,22.4255321 L55.42004,12.3578321 C76.33414,16.2237321 92.20334,34.5876321 92.20334,56.5630321 C92.20334,81.3460321 72.09244,101.456962 47.30944,101.456962 C22.52694,101.456962 2.41554,81.3460321 2.35404,56.5630321 C2.35454,39.8881321 11.49354,25.3282321 25.11214,17.5426321 C25.68424,17.1599321 25.87494,16.4611321 25.55584,15.8267321 C25.29904,15.3161321 24.59734,15.0647321 23.89974,15.5105321 C9.64584,23.6800321 1.77635684e-15,39.0642321 1.77635684e-15,56.5630321 Z" id="Path"></path>
                </g>
                <g id="Black-S" transform="translate(2392.516140, -0.000000)">
                    <path d="M-8.8817842e-16,49.5120135 C-8.8817842e-16,72.6565135 18.84766,91.5041935 41.99216,91.5041935 C65.13676,91.5041935 83.98436,72.6565135 83.98436,49.5120135 C83.98436,29.8831135 70.45896,13.3304135 52.19726,8.78931353 L52.19726,3.76001353 C52.19726,-0.097386466 48.73046,-1.12278647 44.97066,1.31861353 L28.90626,11.7679135 C25.92776,13.7210135 26.02536,17.5296135 28.90626,19.4339135 L44.97066,29.9319135 C48.68166,32.3733135 52.19726,31.4456135 52.19726,27.4905135 L52.19726,23.5843135 C62.54886,27.6858135 69.82426,37.6956135 69.82426,49.5120135 C69.82426,64.8929135 57.37306,77.3440335 41.99216,77.3440335 C26.61136,77.3440335 14.16016,64.8929135 14.16016,49.5120135 C14.16016,42.2854135 16.74806,36.2796135 21.38676,30.8108135 C24.21876,27.4905135 25.24416,23.1936135 22.07026,20.0198135 C19.28706,17.2366135 15.13676,17.3831135 11.32816,20.8499135 C4.58986,26.9534135 -8.8817842e-16,39.5022135 -8.8817842e-16,49.5120135 Z" id="Path"></path>
                </g>
                <g id="Heavy-S" transform="translate(2096.416140, 0.617173)">
                    <path d="M-8.8817842e-16,48.8948407 C-8.8817842e-16,71.6590407 18.62866,90.2762207 41.38136,90.2762207 C64.14566,90.2762207 82.77426,71.6590407 82.77426,48.8948407 C82.77426,29.4272407 69.16826,12.9782407 50.97566,8.65624067 L50.97566,3.58084067 C50.97566,-0.0806593327 47.83156,-1.04845933 44.42906,1.20854067 L29.22896,11.2428407 C26.50396,13.0462407 26.56706,16.4399407 29.22896,18.2174407 L44.41756,28.2890407 C47.79426,30.5461407 50.97566,29.6529407 50.97566,25.9053407 L50.97566,21.7570407 C62.20306,25.6857407 70.18146,36.2947407 70.18146,48.8948407 C70.18146,64.8404407 57.32696,77.7064407 41.38136,77.7064407 C25.44736,77.7064407 12.56976,64.8404407 12.58126,48.8948407 C12.59286,40.9076407 15.72236,34.1527407 21.07556,28.6032407 C23.65406,25.7554407 24.57576,21.9772407 21.88596,19.1260407 C19.50606,16.5733407 15.75906,16.5815407 12.38836,19.5758407 C4.98166,25.9559407 -8.8817842e-16,38.2512407 -8.8817842e-16,48.8948407 Z" id="Path"></path>
                </g>
                <g id="Bold-S" transform="translate(1800.376140, 1.307108)">
                    <path d="M-8.8817842e-16,48.2049059 C-8.8817842e-16,70.5438059 18.38376,88.9031459 40.69826,88.9031459 C63.03706,88.9031459 81.42086,70.5438059 81.42086,48.2049059 C81.42086,28.9178059 67.72456,12.5848059 49.60936,8.50760593 L49.60936,3.38070593 C49.60936,-0.0616940746 46.82616,-0.964994075 43.82326,1.08580593 L29.58986,10.6561059 C27.14846,12.2918059 27.17286,15.2215059 29.58986,16.8572059 L43.79886,26.4520059 C46.80176,28.5027059 49.60936,27.6483059 49.60936,24.1326059 L49.60936,19.7137059 C61.81636,23.4490059 70.58106,34.7283059 70.58106,48.2049059 C70.58106,64.7820059 57.27536,78.1121259 40.69826,78.1121259 C24.14546,78.1121259 10.79106,64.7820059 10.81546,48.2049059 C10.83986,39.3670059 14.57516,31.7742059 20.72756,26.1346059 C23.02246,23.8152059 23.82816,20.6170059 21.67966,18.1268059 C19.75096,15.8318059 16.45506,15.6854059 13.57426,18.1512059 C5.41996,24.8406059 -8.8817842e-16,36.8524059 -8.8817842e-16,48.2049059 Z" id="Path"></path>
                </g>
                <g id="Semibold-S" transform="translate(1504.136140, 1.782529)">
                    <path d="M-8.8817842e-16,47.7294847 C-8.8817842e-16,69.7750847 18.21496,87.9567247 40.22726,87.9567247 C62.27286,87.9567247 80.48776,69.7750847 80.48776,47.7294847 C80.48776,28.5667847 66.72926,12.3137847 48.66736,8.40548468 L48.66736,3.24298468 C48.66736,-0.0483153215 46.13296,-0.907215322 43.40556,1.00138468 L29.83866,10.2517847 C27.59276,11.7719847 27.59056,14.3816847 29.83866,15.9196847 L43.37226,25.1855847 C46.11746,27.0941847 48.66736,26.2663847 48.66736,22.9106847 L48.66736,18.3051847 C61.54976,21.9071847 70.85656,33.6485847 70.85656,47.7294847 C70.85656,64.7420847 57.23986,78.3920747 40.22726,78.3920747 C23.24796,78.3920747 9.56466,64.7420847 9.59796,47.7294847 C9.63126,38.3050847 13.78426,30.1346847 20.48756,24.4327847 C22.58696,22.4777847 23.31266,19.6794847 21.53746,17.4380847 C19.91986,15.3208847 16.93496,15.0677847 14.39176,17.1691847 C5.72206,24.0719847 -8.8817842e-16,35.8881847 -8.8817842e-16,47.7294847 Z" id="Path"></path>
                </g>
                <g id="Medium-S" transform="translate(1207.776140, 2.142855)">
                    <path d="M-8.8817842e-16,47.3691584 C-8.8817842e-16,69.1923584 18.08696,87.2392684 39.87016,87.2392684 C61.69336,87.2392684 79.78026,69.1923584 79.78026,47.3691584 C79.78026,28.3007584 65.97456,12.1084584 47.95316,8.32815841 L47.95316,3.13865841 C47.95316,-0.0380415908 45.60746,-0.863241591 43.08886,0.937558409 L30.02736,9.94535841 C27.92966,11.3779584 27.90726,13.7451584 30.02736,15.2089584 L43.04886,24.2255584 C45.59866,26.0263584 47.95316,25.2187584 47.95316,21.9843584 L47.95316,17.2373584 C61.34766,20.7382584 71.06546,32.8300584 71.06546,47.3691584 C71.06546,64.7119584 57.21286,78.6045084 39.87016,78.6045084 C22.56736,78.6045084 8.63476,64.7119584 8.67476,47.3691584 C8.71486,37.5000584 13.18456,28.8916584 20.30566,23.1425584 C22.25686,21.4638584 22.92186,18.9687584 21.42966,16.9160584 C20.04786,14.9335584 17.29886,14.5996584 15.01176,16.4248584 C5.95116,23.4892584 -8.8817842e-16,35.1572584 -8.8817842e-16,47.3691584 Z" id="Path"></path>
                </g>
                <g id="Regular-S" transform="translate(911.526140, 2.612577)">
                    <path d="M-8.8817842e-16,46.8994368 C-8.8817842e-16,68.4326368 17.91996,86.3037268 39.40426,86.3037268 C60.93746,86.3037268 78.85746,68.4326368 78.85746,46.8994368 C78.85746,27.9541368 64.99026,11.8408368 47.02146,8.22753676 L47.02146,3.00293676 C47.02146,-0.0243632446 44.92186,-0.805663245 42.67576,0.854536755 L30.27346,9.54593676 C28.36916,10.8642368 28.32026,12.9150368 30.27346,14.2822368 L42.62696,22.9736368 C44.92186,24.6338368 47.02146,23.8525368 47.02146,20.7763368 L47.02146,15.8447368 C61.08396,19.2138368 71.33786,31.7627368 71.33786,46.8994368 C71.33786,64.6728368 57.17776,78.8818568 39.40426,78.8818568 C21.67966,78.8818568 7.42186,64.6728368 7.47066,46.8994368 C7.51956,36.4502368 12.40236,27.2705368 20.06836,21.4599368 C21.82616,20.1416368 22.41206,18.0420368 21.28906,16.2353368 C20.21486,14.4287368 17.77346,13.9892368 15.82026,15.4541368 C6.24996,22.7295368 -8.8817842e-16,34.2041368 -8.8817842e-16,46.8994368 Z" id="Path"></path>
                </g>
                <g id="Light-S" transform="translate(615.546140, 3.445286)">
                    <path d="M-8.8817842e-16,46.0970272 C-8.8817842e-16,67.2820272 17.52636,84.7747372 38.67776,84.7747372 C59.84766,84.7747372 77.38916,67.2820272 77.38916,46.0970272 C77.38916,27.3787272 63.68846,11.5379272 45.90136,8.0911272 L45.90136,2.4578272 C45.90136,0.0057272039 44.19536,-0.684772796 42.28226,0.718127204 L30.22806,9.1673272 C28.61136,10.2737272 28.57766,11.9612272 30.22806,13.1165272 L42.24856,21.5506272 C44.19536,22.9534272 45.90136,22.2630272 45.90136,19.7771272 L45.90136,13.9222272 C60.69046,17.1854272 71.62546,30.3094272 71.62546,46.0970272 C71.62546,64.3850272 56.96586,79.0784272 38.67776,79.0784272 C20.42336,79.0784272 5.69626,64.3850272 5.71486,46.0970272 C5.74856,34.8304272 11.34276,24.9544272 19.94726,19.0530272 C21.29636,18.0525272 21.74606,16.4373272 20.89546,15.0394272 C20.09376,13.6717272 18.24266,13.3079272 16.72846,14.4246272 C6.65866,21.4275272 -8.8817842e-16,33.0838272 -8.8817842e-16,46.0970272 Z" id="Path"></path>
                </g>
                <g id="Thin-S" transform="translate(319.809140, 4.546568)">
                    <path d="M-8.8817842e-16,45.0357457 C-8.8817842e-16,65.7603457 17.00586,82.7525657 37.71676,82.7525657 C58.40626,82.7525657 75.44726,65.7603457 75.44726,45.0357457 C75.44726,26.6177457 61.96686,11.1373457 44.41996,7.91074572 L44.41996,1.73694572 C44.41996,0.0455457154 43.23436,-0.524854285 41.76176,0.537645715 L30.16796,8.66664572 C28.93166,9.49274572 28.91796,10.6998457 30.16796,11.5748457 L41.74806,19.6685457 C43.23436,20.7310457 44.41996,20.1607457 44.41996,18.4556457 L44.41996,11.3795457 C60.16996,14.5025457 72.00586,28.3873457 72.00586,45.0357457 C72.00586,64.0044457 56.68556,79.3384677 37.71676,79.3384677 C18.76176,79.3384677 3.41406,64.0044457 3.39256,45.0357457 C3.40626,32.6881457 9.94146,21.8912457 19.78706,15.8697457 C20.59576,15.2896457 20.86526,14.3150457 20.37496,13.4576457 C19.93356,12.6705457 18.86326,12.4068457 17.92966,13.0631457 C7.19916,19.7056457 -8.8817842e-16,31.6021457 -8.8817842e-16,45.0357457 Z" id="Path"></path>
                </g>
                <g id="Ultralight-S" transform="translate(23.595140, 5.110649)">
                    <path d="M-8.8817842e-16,44.492165 C-8.8817842e-16,64.980965 16.73926,81.716805 37.22466,81.716805 C57.66796,81.716805 74.45266,64.980965 74.45266,44.492165 C74.45266,26.227965 61.08496,10.932065 43.66116,7.81836495 L43.66116,1.36766495 C43.66116,0.0658649509 42.74216,-0.442935049 41.49516,0.445264951 L30.13716,8.41016495 C29.09566,9.09276495 29.09226,10.053665 30.13716,10.785165 L41.49166,18.704565 C42.74216,19.592765 43.66116,19.083965 43.66116,17.778765 L43.66116,10.077165 C59.90336,13.128465 72.20066,27.402865 72.20066,44.492165 C72.20066,63.809565 56.54196,79.471647 37.22466,79.471647 C17.91066,79.471647 2.24516,63.809565 2.20316,44.492165 C2.20658,31.590865 9.22366,20.322265 19.70506,14.239265 C20.23686,13.874565 20.41406,13.228065 20.10836,12.647465 C19.85156,12.157665 19.18116,11.945265 18.54486,12.365765 C7.47606,18.823765 -8.8817842e-16,30.843265 -8.8817842e-16,44.492165 Z" id="Path"></path>
                </g>
            </g>
        </g>
    </g>
</svg>